<svg width="41" height="41" viewBox="0 0 41 41" fill="none" xmlns="http://www.w3.org/2000/svg">
<g clip-path="url(#clip0_1610_511)">
<circle cx="20.2969" cy="20.0449" r="20" fill="white"/>
<path fill-rule="evenodd" clip-rule="evenodd" d="M22.3334 8.66668H19.6667L19.6667 11.3334H22.3334V8.66668ZM19.6667 8C19.2985 8 19 8.29848 19 8.66668V11.3334C19 11.7016 19.2985 12.0001 19.6667 12.0001H22.3334C22.7016 12.0001 23.0001 11.7016 23.0001 11.3334V8.66668C23.0001 8.29848 22.7016 8 22.3334 8H19.6667Z" fill="black"/>
<path fill-rule="evenodd" clip-rule="evenodd" d="M15.3921 15.8542L12.8752 15.8542L12.8752 18.3711L15.3921 18.3711L15.3921 15.8542ZM12.8752 15.1875C12.507 15.1875 12.2085 15.486 12.2085 15.8542V18.3711C12.2085 18.7393 12.507 19.0378 12.8752 19.0378H15.3921C15.7603 19.0378 16.0588 18.7393 16.0588 18.3711V15.8542C16.0588 15.486 15.7603 15.1875 15.3921 15.1875H12.8752Z" fill="black"/>
<path fill-rule="evenodd" clip-rule="evenodd" d="M12.1836 23.0412L9.66668 23.0412L9.66667 25.5582L12.1836 25.5582L12.1836 23.0412ZM9.66668 22.3745C9.29848 22.3745 9 22.673 9 23.0412V25.5582C9 25.9263 9.29848 26.2248 9.66667 26.2248H12.1836C12.5518 26.2248 12.8503 25.9264 12.8503 25.5582V23.0412C12.8503 22.673 12.5518 22.3745 12.1836 22.3745H9.66668Z" fill="black"/>
<path fill-rule="evenodd" clip-rule="evenodd" d="M18.6011 23.0412L16.0842 23.0412L16.0842 25.5582L18.6011 25.5582L18.6011 23.0412ZM16.0842 22.3745C15.716 22.3745 15.4175 22.673 15.4175 23.0412V25.5582C15.4175 25.9263 15.716 26.2248 16.0842 26.2248H18.6011C18.9693 26.2248 19.2678 25.9264 19.2678 25.5582V23.0412C19.2678 22.673 18.9693 22.3745 18.6011 22.3745H16.0842Z" fill="black"/>
<path fill-rule="evenodd" clip-rule="evenodd" d="M12.1836 28.6886L9.66668 28.6886L9.66667 31.2056L12.1836 31.2056L12.1836 28.6886ZM9.66668 28.022C9.29848 28.022 9 28.3205 9 28.6886V31.2056C9 31.5738 9.29848 31.8723 9.66667 31.8723H12.1836C12.5518 31.8723 12.8503 31.5738 12.8503 31.2056V28.6886C12.8503 28.3205 12.5518 28.022 12.1836 28.022H9.66668Z" fill="black"/>
<path fill-rule="evenodd" clip-rule="evenodd" d="M18.6011 28.6886L16.0842 28.6886L16.0842 31.2056L18.6011 31.2056L18.6011 28.6886ZM16.0842 28.022C15.716 28.022 15.4175 28.3205 15.4175 28.6886V31.2056C15.4175 31.5738 15.716 31.8723 16.0842 31.8723H18.6011C18.9693 31.8723 19.2678 31.5738 19.2678 31.2056V28.6886C19.2678 28.3205 18.9693 28.022 18.6011 28.022H16.0842Z" fill="black"/>
<path fill-rule="evenodd" clip-rule="evenodd" d="M10.7441 22.4535L13.8778 18.6963L14.3898 19.1233L11.2561 22.8805L10.7441 22.4535Z" fill="black"/>
<path fill-rule="evenodd" clip-rule="evenodd" d="M17.5854 22.4481L14.3216 18.6909L13.8183 19.1281L17.0822 22.8853L17.5854 22.4481Z" fill="black"/>
<path fill-rule="evenodd" clip-rule="evenodd" d="M10.5918 28.0219V26.2251H11.2585V28.0219H10.5918Z" fill="black"/>
<path fill-rule="evenodd" clip-rule="evenodd" d="M17.0093 28.0219V26.2251H17.676V28.0219H17.0093Z" fill="black"/>
<path fill-rule="evenodd" clip-rule="evenodd" d="M29.1246 15.8542L26.6076 15.8542L26.6076 18.3711L29.1246 18.3711L29.1246 15.8542ZM26.6076 15.1875C26.2394 15.1875 25.9409 15.486 25.9409 15.8542V18.3711C25.9409 18.7393 26.2394 19.0378 26.6076 19.0378H29.1246C29.4928 19.0378 29.7912 18.7393 29.7912 18.3711V15.8542C29.7912 15.486 29.4928 15.1875 29.1246 15.1875H26.6076Z" fill="black"/>
<path fill-rule="evenodd" clip-rule="evenodd" d="M25.9161 23.0412L23.3991 23.0412L23.3991 25.5582L25.9161 25.5582L25.9161 23.0412ZM23.3991 22.3745C23.0309 22.3745 22.7324 22.673 22.7324 23.0412V25.5582C22.7324 25.9263 23.0309 26.2248 23.3991 26.2248H25.9161C26.2843 26.2248 26.5827 25.9264 26.5827 25.5582V23.0412C26.5827 22.673 26.2843 22.3745 25.9161 22.3745H23.3991Z" fill="black"/>
<path fill-rule="evenodd" clip-rule="evenodd" d="M32.3335 23.0412L29.8166 23.0412L29.8166 25.5582L32.3335 25.5582L32.3335 23.0412ZM29.8166 22.3745C29.4484 22.3745 29.1499 22.673 29.1499 23.0412V25.5582C29.1499 25.9263 29.4484 26.2248 29.8166 26.2248H32.3335C32.7017 26.2248 33.0002 25.9264 33.0002 25.5582V23.0412C33.0002 22.673 32.7017 22.3745 32.3335 22.3745H29.8166Z" fill="black"/>
<path fill-rule="evenodd" clip-rule="evenodd" d="M25.9161 28.6886L23.3991 28.6886L23.3991 31.2056L25.9161 31.2056L25.9161 28.6886ZM23.3991 28.022C23.0309 28.022 22.7324 28.3205 22.7324 28.6886V31.2056C22.7324 31.5738 23.0309 31.8723 23.3991 31.8723H25.9161C26.2843 31.8723 26.5827 31.5738 26.5827 31.2056V28.6886C26.5827 28.3205 26.2843 28.022 25.9161 28.022H23.3991Z" fill="black"/>
<path fill-rule="evenodd" clip-rule="evenodd" d="M32.3335 28.6886L29.8166 28.6886L29.8166 31.2056L32.3335 31.2056L32.3335 28.6886ZM29.8166 28.022C29.4484 28.022 29.1499 28.3205 29.1499 28.6886V31.2056C29.1499 31.5738 29.4484 31.8723 29.8166 31.8723H32.3335C32.7017 31.8723 33.0002 31.5738 33.0002 31.2056V28.6886C33.0002 28.3205 32.7017 28.022 32.3335 28.022H29.8166Z" fill="black"/>
<path fill-rule="evenodd" clip-rule="evenodd" d="M24.4136 22.4511L27.613 18.6938L28.1206 19.1261L24.9212 22.8833L24.4136 22.4511Z" fill="black"/>
<path fill-rule="evenodd" clip-rule="evenodd" d="M31.2539 22.4511L28.0558 18.6938L27.5481 19.126L30.7462 22.8832L31.2539 22.4511Z" fill="black"/>
<path fill-rule="evenodd" clip-rule="evenodd" d="M24.3242 28.0219V26.2251H24.9909V28.0219H24.3242Z" fill="black"/>
<path fill-rule="evenodd" clip-rule="evenodd" d="M30.7417 28.0219V26.2251H31.4084V28.0219H30.7417Z" fill="black"/>
<path fill-rule="evenodd" clip-rule="evenodd" d="M27.5006 15.622L21.2188 12.0106L21.551 11.4326L28.6668 15.6664L27.5006 15.622Z" fill="black"/>
<path fill-rule="evenodd" clip-rule="evenodd" d="M14.3851 15.622L20.667 12.0106L20.3347 11.4326L13.219 15.6664L14.3851 15.622Z" fill="black"/>
</g>
<defs>
<clipPath id="clip0_1610_511">
<rect width="40" height="40" fill="white" transform="translate(0.296875 0.0449219)"/>
</clipPath>
</defs>
</svg>
