<svg width="40" height="40" viewBox="0 0 40 40" fill="none" xmlns="http://www.w3.org/2000/svg">
<path d="M20 0.805664C9.24781 0.805664 0.5 9.55348 0.5 20.3057C0.5 31.0579 9.24781 39.8057 20 39.8057C30.7522 39.8057 39.5 31.0579 39.5 20.3057C39.5 9.55348 30.7522 0.805664 20 0.805664ZM27.0603 25.2454C27.2055 25.3833 27.3215 25.5488 27.4017 25.7323C27.4819 25.9158 27.5245 26.1134 27.527 26.3136C27.5296 26.5138 27.4921 26.7125 27.4166 26.898C27.3412 27.0834 27.2294 27.2519 27.0878 27.3935C26.9462 27.5351 26.7778 27.6469 26.5923 27.7223C26.4068 27.7977 26.2081 27.8353 26.0079 27.8327C25.8078 27.8301 25.6101 27.7875 25.4266 27.7074C25.2432 27.6272 25.0776 27.5111 24.9397 27.366L20 22.4272L15.0603 27.366C14.7767 27.6354 14.3991 27.7834 14.008 27.7784C13.6168 27.7734 13.2431 27.6158 12.9665 27.3392C12.6899 27.0626 12.5323 26.6889 12.5273 26.2977C12.5223 25.9066 12.6703 25.5289 12.9397 25.2454L17.8784 20.3057L12.9397 15.366C12.6703 15.0824 12.5223 14.7048 12.5273 14.3136C12.5323 13.9225 12.6899 13.5488 12.9665 13.2722C13.2431 12.9956 13.6168 12.838 14.008 12.8329C14.3991 12.8279 14.7767 12.9759 15.0603 13.2454L20 18.1841L24.9397 13.2454C25.2233 12.9759 25.6009 12.8279 25.9921 12.8329C26.3832 12.838 26.7569 12.9956 27.0335 13.2722C27.3101 13.5488 27.4677 13.9225 27.4727 14.3136C27.4777 14.7048 27.3297 15.0824 27.0603 15.366L22.1216 20.3057L27.0603 25.2454Z" fill="black"/>
</svg>
