<svg xmlns="http://www.w3.org/2000/svg" xmlns:xlink="http://www.w3.org/1999/xlink" width="500" zoomAndPan="magnify" viewBox="0 0 375 374.999991" height="500" preserveAspectRatio="xMidYMid meet" version="1.0"><defs><g/><clipPath id="4cd4e13bca"><path d="M 187 140 L 286.203125 140 L 286.203125 183 L 187 183 Z M 187 140 " clip-rule="nonzero"/></clipPath><clipPath id="0bfc3e9012"><path d="M 64.953125 37.5 L 261 37.5 L 261 230 L 64.953125 230 Z M 64.953125 37.5 " clip-rule="nonzero"/></clipPath><clipPath id="768c278204"><path d="M 52 265 L 83 265 L 83 286.914062 L 52 286.914062 Z M 52 265 " clip-rule="nonzero"/></clipPath><clipPath id="c2d762e548"><path d="M 63 283 L 73 283 L 73 286.914062 L 63 286.914062 Z M 63 283 " clip-rule="nonzero"/></clipPath><clipPath id="3adfd804ba"><path d="M 62 253.164062 L 82 253.164062 L 82 268 L 62 268 Z M 62 253.164062 " clip-rule="nonzero"/></clipPath><clipPath id="039f794d32"><path d="M 55 283 L 61 283 L 61 286.914062 L 55 286.914062 Z M 55 283 " clip-rule="nonzero"/></clipPath><clipPath id="c06225e971"><path d="M 47 283 L 54 283 L 54 286.914062 L 47 286.914062 Z M 47 283 " clip-rule="nonzero"/></clipPath><clipPath id="ce7c1ccd0b"><path d="M 51 283 L 58 283 L 58 286.914062 L 51 286.914062 Z M 51 283 " clip-rule="nonzero"/></clipPath><clipPath id="c35f23feeb"><path d="M 46.65625 253.164062 L 83.40625 253.164062 L 83.40625 286.914062 L 46.65625 286.914062 Z M 46.65625 253.164062 " clip-rule="nonzero"/></clipPath><clipPath id="ae37369199"><path d="M 51 306.210938 L 70 306.210938 L 70 325 L 51 325 Z M 51 306.210938 " clip-rule="nonzero"/></clipPath><clipPath id="ec60740591"><path d="M 46.65625 306.210938 L 76.65625 306.210938 L 76.65625 336.210938 L 46.65625 336.210938 Z M 46.65625 306.210938 " clip-rule="nonzero"/></clipPath></defs><path fill="#f25525" d="M 162.585938 133.429688 L 136.757812 229.175781 C 145.941406 232.035156 152.484375 232.574219 162.605469 232.574219 C 176.859375 232.574219 190.40625 229.519531 202.617188 224.035156 L 162.585938 133.429688 " fill-opacity="1" fill-rule="nonzero"/><path fill="#f5c116" d="M 175.796875 142.523438 L 216.640625 232.90625 C 225.550781 229.296875 230.953125 225.574219 238.78125 219.164062 C 249.804688 210.136719 258.339844 199.199219 264.292969 187.230469 L 175.796875 142.523438 " fill-opacity="1" fill-rule="nonzero"/><g clip-path="url(#4cd4e13bca)"><path fill="#3da48d" d="M 187.054688 140.320312 L 276.675781 183 C 282.816406 170.15625 285.890625 156.636719 286.191406 143.277344 L 187.054688 140.320312 " fill-opacity="1" fill-rule="nonzero"/></g><g clip-path="url(#0bfc3e9012)"><path fill="#34799a" d="M 260.207031 135.15625 L 162.585938 133.429688 L 136.757812 229.175781 C 95.378906 217.871094 64.964844 180.0625 64.964844 135.15625 C 64.964844 81.324219 108.671875 37.691406 162.585938 37.691406 C 216.5 37.691406 260.207031 81.324219 260.207031 135.15625 " fill-opacity="1" fill-rule="nonzero"/></g><g clip-path="url(#768c278204)"><path fill="#fc5d3d" d="M 77.246094 280.59375 L 77.246094 283.195312 L 70.265625 283.195312 C 72.03125 281.285156 73.015625 278.804688 73.015625 276.175781 C 73.015625 272.363281 70.921875 268.890625 67.601562 267.078125 C 66.058594 266.234375 64.355469 265.824219 62.714844 265.824219 C 57.289062 265.71875 52.347656 270.246094 52.347656 276.175781 C 52.347656 277.476562 52.589844 278.71875 53.027344 279.867188 L 56.722656 279.863281 C 56.054688 278.792969 55.671875 277.527344 55.671875 276.175781 C 55.671875 272.300781 58.820312 269.15625 62.679688 269.15625 C 66.539062 269.15625 69.691406 272.300781 69.691406 276.175781 C 69.691406 280.046875 66.546875 283.195312 62.679688 283.195312 L 58.671875 283.195312 L 60.78125 284.859375 L 58.671875 286.527344 L 82.914062 286.527344 C 78.976562 282.40625 80.21875 283.707031 77.246094 280.59375 Z M 77.246094 280.59375 " fill-opacity="1" fill-rule="nonzero"/></g><g clip-path="url(#c2d762e548)"><path fill="#d95034" d="M 72.558594 283.195312 C 72.558594 283.195312 69.582031 286.527344 68.140625 286.527344 L 63.722656 286.527344 C 67.421875 286.527344 70.269531 283.195312 70.269531 283.195312 Z M 72.558594 283.195312 " fill-opacity="1" fill-rule="nonzero"/></g><path fill="#f0c020" d="M 60.980469 279.171875 L 58.894531 277.082031 C 58.46875 276.652344 58.46875 275.960938 58.894531 275.53125 C 59.320312 275.105469 60.011719 275.105469 60.441406 275.53125 L 61.625 276.71875 L 64.777344 273.558594 C 65.203125 273.132812 65.894531 273.132812 66.324219 273.558594 C 66.75 273.988281 66.75 274.679688 66.324219 275.109375 L 62.269531 279.171875 C 61.914062 279.527344 61.335938 279.527344 60.980469 279.171875 Z M 60.980469 279.171875 " fill-opacity="1" fill-rule="nonzero"/><path fill="#ffcbc2" d="M 78.09375 285.226562 L 72.375 285.226562 C 72.175781 285.226562 72.011719 285.0625 72.011719 284.859375 C 72.011719 284.660156 72.175781 284.496094 72.375 284.496094 L 78.09375 284.496094 C 78.296875 284.496094 78.457031 284.660156 78.457031 284.859375 C 78.457031 285.0625 78.296875 285.226562 78.09375 285.226562 Z M 78.09375 285.226562 " fill-opacity="1" fill-rule="nonzero"/><g clip-path="url(#3adfd804ba)"><path fill="#f0c020" d="M 81.574219 262.617188 L 78.539062 267.136719 L 75.511719 262.617188 L 76.875 262.617188 C 76.875 259.484375 74.371094 256.953125 71.257812 256.90625 C 65.777344 256.824219 63.429688 263.796875 67.601562 267.078125 C 66.054688 266.234375 64.355469 265.824219 62.714844 265.824219 C 60.488281 259.902344 64.839844 253.5625 71.171875 253.5625 C 76.171875 253.5625 80.210938 257.605469 80.210938 262.617188 Z M 81.574219 262.617188 " fill-opacity="1" fill-rule="nonzero"/></g><path fill="#f9e5af" d="M 63.339844 264.652344 C 63.167969 263.984375 63.078125 263.296875 63.078125 262.613281 C 63.078125 258.148438 66.710938 254.511719 71.171875 254.511719 C 75.304688 254.511719 78.761719 257.605469 79.210938 261.710938 C 79.234375 261.910156 79.089844 262.09375 78.890625 262.113281 C 78.6875 262.136719 78.507812 261.992188 78.488281 261.792969 C 78.074219 258.058594 74.929688 255.242188 71.171875 255.242188 C 67.113281 255.242188 63.808594 258.550781 63.808594 262.613281 C 63.808594 263.238281 63.886719 263.859375 64.046875 264.472656 C 64.09375 264.667969 63.976562 264.867188 63.785156 264.917969 C 63.585938 264.96875 63.390625 264.847656 63.339844 264.652344 Z M 78.898438 264.296875 C 78.695312 264.296875 78.53125 264.136719 78.53125 263.933594 L 78.53125 263.210938 C 78.53125 263.007812 78.695312 262.84375 78.898438 262.84375 C 79.097656 262.84375 79.261719 263.007812 79.261719 263.210938 L 79.261719 263.933594 C 79.261719 264.136719 79.097656 264.296875 78.898438 264.296875 Z M 78.898438 264.296875 " fill-opacity="1" fill-rule="nonzero"/><path fill="#fc5d3d" d="M 72.902344 260.730469 L 72.832031 259.632812 L 69.683594 259.632812 L 69.613281 260.730469 C 69.578125 261.28125 69.808594 261.769531 70.183594 262.09375 C 70.363281 262.246094 70.363281 262.515625 70.183594 262.667969 C 69.8125 262.988281 69.578125 263.476562 69.613281 264.027344 L 69.683594 265.128906 L 72.832031 265.128906 L 72.902344 264.027344 C 72.9375 263.476562 72.707031 262.988281 72.332031 262.667969 C 72.152344 262.515625 72.152344 262.246094 72.332031 262.089844 C 72.703125 261.773438 72.9375 261.285156 72.902344 260.730469 Z M 72.902344 260.730469 " fill-opacity="1" fill-rule="nonzero"/><path fill="#ffcbc2" d="M 60.675781 285.316406 C 60.472656 285.316406 60.3125 285.152344 60.3125 284.949219 C 60.3125 284.746094 60.472656 284.585938 60.675781 284.585938 L 61.339844 284.585938 C 67.449219 284.570312 70.746094 280.175781 70.746094 276.050781 C 70.746094 270.953125 66.515625 267.796875 62.597656 267.796875 C 60.5 267.71875 58.394531 268.5625 56.800781 270.097656 C 55.171875 271.675781 54.269531 273.789062 54.269531 276.050781 C 54.269531 276.714844 54.351562 277.375 54.507812 278.015625 C 54.554688 278.210938 54.433594 278.410156 54.238281 278.457031 C 54.042969 278.503906 53.847656 278.386719 53.796875 278.1875 C 53.628906 277.492188 53.542969 276.773438 53.542969 276.050781 C 53.542969 273.589844 54.519531 271.289062 56.296875 269.574219 C 58.03125 267.898438 60.332031 266.984375 62.609375 267.066406 C 67.160156 267.066406 71.472656 270.828125 71.472656 276.050781 C 71.472656 280.53125 67.921875 285.300781 61.339844 285.316406 Z M 60.675781 285.316406 " fill-opacity="1" fill-rule="nonzero"/><g clip-path="url(#039f794d32)"><path fill="#f0c020" d="M 60.78125 284.859375 L 58.671875 286.527344 L 55.113281 286.527344 L 57.222656 284.859375 L 55.113281 283.195312 L 58.671875 283.195312 Z M 60.78125 284.859375 " fill-opacity="1" fill-rule="nonzero"/></g><g clip-path="url(#c06225e971)"><path fill="#13bf6d" d="M 53.164062 284.859375 L 51.054688 286.527344 L 47.015625 286.527344 L 49.128906 284.859375 L 47.015625 283.195312 L 51.054688 283.195312 Z M 53.164062 284.859375 " fill-opacity="1" fill-rule="nonzero"/></g><g clip-path="url(#ce7c1ccd0b)"><path fill="#72c1e8" d="M 55.113281 283.195312 L 51.054688 283.195312 L 53.164062 284.859375 L 51.054688 286.527344 L 55.113281 286.527344 L 57.222656 284.859375 Z M 55.113281 283.195312 " fill-opacity="1" fill-rule="nonzero"/></g><path fill="#f9e5af" d="M 60.6875 285.316406 L 57.117188 285.316406 C 56.914062 285.316406 56.75 285.152344 56.75 284.949219 C 56.75 284.746094 56.914062 284.585938 57.117188 284.585938 L 60.6875 284.585938 C 60.886719 284.585938 61.050781 284.746094 61.050781 284.949219 C 61.050781 285.152344 60.886719 285.316406 60.6875 285.316406 Z M 60.6875 285.316406 " fill-opacity="1" fill-rule="nonzero"/><path fill="#76ffba" d="M 53.054688 285.316406 L 50.386719 285.316406 C 50.183594 285.316406 50.019531 285.152344 50.019531 284.949219 C 50.019531 284.746094 50.183594 284.585938 50.386719 284.585938 L 53.054688 284.585938 C 53.257812 284.585938 53.421875 284.746094 53.421875 284.949219 C 53.421875 285.152344 53.257812 285.316406 53.054688 285.316406 Z M 53.054688 285.316406 " fill-opacity="1" fill-rule="nonzero"/><path fill="#c5e5ff" d="M 57.117188 285.316406 L 53.054688 285.316406 C 52.855469 285.316406 52.691406 285.152344 52.691406 284.949219 C 52.691406 284.746094 52.855469 284.585938 53.054688 284.585938 L 57.117188 284.585938 C 57.316406 284.585938 57.480469 284.746094 57.480469 284.949219 C 57.480469 285.152344 57.316406 285.316406 57.117188 285.316406 Z M 57.117188 285.316406 " fill-opacity="1" fill-rule="nonzero"/><path fill="#000000" d="M 73.226562 264.761719 L 73.21875 264.761719 L 73.265625 264.050781 C 73.304688 263.457031 73.085938 262.890625 72.664062 262.480469 C 72.609375 262.425781 72.609375 262.332031 72.664062 262.277344 C 73.085938 261.867188 73.304688 261.304688 73.265625 260.707031 L 73.21875 260 L 73.226562 260 C 73.414062 260 73.59375 259.859375 73.601562 259.640625 C 73.605469 259.4375 73.4375 259.269531 73.234375 259.269531 L 69.128906 259.269531 C 68.929688 259.269531 68.742188 259.417969 68.742188 259.632812 C 68.742188 259.835938 68.90625 260 69.109375 260 L 69.292969 260 L 69.25 260.707031 C 69.210938 261.304688 69.429688 261.867188 69.851562 262.277344 C 69.90625 262.335938 69.90625 262.425781 69.851562 262.480469 C 69.429688 262.890625 69.210938 263.457031 69.25 264.050781 L 69.292969 264.761719 L 69.128906 264.761719 C 68.9375 264.761719 68.765625 264.898438 68.746094 265.089844 C 68.722656 265.308594 68.894531 265.492188 69.109375 265.492188 L 73.234375 265.492188 C 73.46875 265.492188 73.652344 265.273438 73.585938 265.027344 C 73.546875 264.867188 73.390625 264.761719 73.226562 264.761719 Z M 72.09375 262.945312 C 72.402344 263.210938 72.5625 263.597656 72.539062 264.003906 L 72.488281 264.761719 L 70.027344 264.761719 L 69.976562 264.003906 C 69.953125 263.597656 70.113281 263.210938 70.421875 262.945312 C 70.773438 262.644531 70.769531 262.113281 70.421875 261.8125 C 70.113281 261.550781 69.953125 261.164062 69.976562 260.753906 L 70.027344 260 L 72.488281 260 L 72.539062 260.753906 C 72.5625 261.164062 72.402344 261.550781 72.09375 261.8125 C 71.742188 262.113281 71.742188 262.648438 72.09375 262.945312 Z M 72.09375 262.945312 " fill-opacity="1" fill-rule="nonzero"/><g clip-path="url(#c35f23feeb)"><path fill="#000000" d="M 83.179688 286.273438 L 77.507812 280.339844 C 77.285156 280.105469 76.878906 280.261719 76.878906 280.59375 L 76.878906 282.832031 L 75.855469 282.832031 C 75.65625 282.832031 75.492188 282.992188 75.492188 283.195312 C 75.492188 283.398438 75.65625 283.5625 75.855469 283.5625 L 77.246094 283.5625 C 77.445312 283.5625 77.609375 283.402344 77.609375 283.195312 L 77.609375 281.503906 L 82.058594 286.160156 L 66.878906 286.160156 C 68.730469 285.3125 70.046875 283.980469 70.429688 283.5625 L 72.9375 283.5625 C 73.136719 283.5625 73.300781 283.398438 73.300781 283.195312 C 73.300781 282.996094 73.136719 282.832031 72.9375 282.832031 L 71.058594 282.832031 C 72.523438 280.988281 73.378906 278.664062 73.378906 276.175781 C 73.378906 272.265625 71.246094 268.667969 67.8125 266.777344 C 66.539062 265.765625 65.839844 264.324219 65.835938 262.707031 C 65.835938 259.605469 68.347656 257.136719 71.25 257.273438 C 74.0625 257.3125 76.308594 259.503906 76.496094 262.25 L 75.511719 262.25 C 75.21875 262.25 75.046875 262.578125 75.207031 262.820312 L 78.238281 267.339844 C 78.378906 267.554688 78.695312 267.558594 78.84375 267.339844 L 81.875 262.820312 C 82.039062 262.574219 81.863281 262.25 81.570312 262.25 L 80.566406 262.25 C 80.480469 259.953125 79.5625 257.773438 77.980469 256.113281 C 77.847656 255.972656 77.605469 255.96875 77.464844 256.101562 C 77.324219 256.238281 77.3125 256.46875 77.453125 256.617188 C 77.453125 256.617188 77.453125 256.621094 77.453125 256.621094 C 78.996094 258.238281 79.84375 260.367188 79.84375 262.617188 C 79.84375 262.816406 80.003906 262.984375 80.210938 262.984375 L 80.886719 262.984375 L 78.539062 266.480469 L 76.195312 262.984375 L 76.871094 262.984375 C 77.078125 262.984375 77.238281 262.816406 77.238281 262.617188 C 77.238281 259.28125 74.574219 256.585938 71.261719 256.542969 C 67.988281 256.394531 65.105469 259.160156 65.105469 262.707031 C 65.105469 263.878906 65.4375 265.023438 66.125 266.03125 C 65.105469 265.683594 64.042969 265.488281 62.976562 265.464844 C 62.652344 264.535156 62.488281 263.574219 62.488281 262.609375 C 62.488281 258.003906 66.195312 253.929688 71.171875 253.929688 C 72.585938 253.929688 73.988281 254.277344 75.230469 254.933594 C 75.40625 255.027344 75.628906 254.960938 75.722656 254.78125 C 75.820312 254.601562 75.75 254.382812 75.574219 254.285156 C 74.226562 253.574219 72.703125 253.199219 71.171875 253.199219 L 71.167969 253.199219 C 65.773438 253.199219 61.757812 257.621094 61.757812 262.609375 C 61.757812 263.578125 61.910156 264.535156 62.207031 265.464844 C 59.53125 265.550781 57.039062 266.695312 55.175781 268.542969 C 53.117188 270.574219 51.984375 273.285156 51.984375 276.175781 C 51.984375 277.488281 52.21875 278.777344 52.6875 279.996094 C 52.753906 280.179688 52.972656 280.277344 53.15625 280.207031 C 53.34375 280.136719 53.4375 279.921875 53.367188 279.738281 C 52.933594 278.597656 52.714844 277.402344 52.714844 276.175781 C 52.714844 273.484375 53.769531 270.957031 55.6875 269.058594 C 57.53125 267.234375 60.027344 266.1875 62.527344 266.1875 C 64.269531 266.1875 65.871094 266.546875 67.425781 267.398438 C 70.648438 269.15625 72.648438 272.519531 72.648438 276.175781 C 72.648438 282.109375 67.433594 286.160156 63.722656 286.160156 L 59.722656 286.160156 C 59.734375 286.152344 61.011719 285.144531 61.011719 285.144531 C 61.191406 285 61.195312 284.722656 61.007812 284.574219 C 59.652344 283.503906 59.871094 283.675781 59.726562 283.5625 L 62.679688 283.5625 C 66.746094 283.558594 70.054688 280.246094 70.054688 276.175781 C 70.054688 272.105469 66.746094 268.789062 62.679688 268.789062 C 62.058594 268.789062 61.445312 268.867188 60.851562 269.019531 C 60.652344 269.070312 60.535156 269.273438 60.585938 269.464844 C 60.636719 269.65625 60.839844 269.777344 61.03125 269.726562 C 61.566406 269.589844 62.125 269.519531 62.679688 269.519531 C 66.34375 269.519531 69.324219 272.503906 69.324219 276.175781 C 69.324219 279.867188 66.332031 282.832031 62.679688 282.832031 C 48.714844 282.832031 60.277344 282.832031 47.015625 282.832031 C 46.816406 282.832031 46.652344 282.996094 46.652344 283.195312 C 46.652344 283.398438 46.816406 283.5625 47.015625 283.5625 L 50.925781 283.5625 L 52.574219 284.859375 L 50.925781 286.160156 L 47.015625 286.160156 C 46.816406 286.160156 46.652344 286.324219 46.652344 286.527344 C 46.652344 286.730469 46.816406 286.890625 47.015625 286.890625 C 48.015625 286.890625 81.558594 286.890625 82.914062 286.890625 C 83.238281 286.890625 83.398438 286.503906 83.179688 286.273438 Z M 58.546875 283.5625 L 59.984375 284.695312 L 60.191406 284.859375 L 58.546875 286.160156 L 56.164062 286.160156 L 57.449219 285.148438 C 57.636719 285 57.636719 284.71875 57.449219 284.574219 L 56.167969 283.5625 Z M 54.988281 283.5625 L 56.632812 284.859375 L 54.988281 286.160156 L 52.105469 286.160156 L 53.390625 285.148438 C 53.574219 285 53.574219 284.71875 53.390625 284.574219 L 52.105469 283.5625 Z M 54.988281 283.5625 " fill-opacity="1" fill-rule="nonzero"/></g><path fill="#000000" d="M 58.121094 270.375 C 56.421875 271.71875 55.308594 273.8125 55.308594 276.175781 C 55.308594 277.550781 55.691406 278.894531 56.410156 280.058594 C 56.519531 280.234375 56.746094 280.28125 56.914062 280.175781 C 57.082031 280.070312 57.136719 279.84375 57.03125 279.671875 C 56.382812 278.625 56.035156 277.414062 56.035156 276.175781 C 56.035156 274.128906 56.960938 272.222656 58.574219 270.949219 C 58.730469 270.824219 58.757812 270.59375 58.632812 270.4375 C 58.511719 270.28125 58.273438 270.253906 58.121094 270.375 Z M 58.121094 270.375 " fill-opacity="1" fill-rule="nonzero"/><path fill="#000000" d="M 59.738281 270.210938 C 59.917969 270.121094 59.992188 269.898438 59.902344 269.71875 C 59.816406 269.542969 59.589844 269.46875 59.414062 269.554688 C 59.414062 269.554688 59.414062 269.554688 59.414062 269.558594 C 59.230469 269.644531 59.160156 269.867188 59.25 270.046875 C 59.335938 270.226562 59.554688 270.300781 59.738281 270.210938 Z M 59.738281 270.210938 " fill-opacity="1" fill-rule="nonzero"/><path fill="#000000" d="M 74.03125 283.195312 C 74.03125 283.398438 74.195312 283.5625 74.398438 283.5625 C 74.597656 283.5625 74.761719 283.398438 74.761719 283.195312 C 74.761719 282.992188 74.597656 282.832031 74.398438 282.832031 C 74.195312 282.832031 74.03125 282.996094 74.03125 283.195312 Z M 74.03125 283.195312 " fill-opacity="1" fill-rule="nonzero"/><path fill="#000000" d="M 58.636719 277.339844 L 60.722656 279.429688 C 61.222656 279.929688 62.027344 279.929688 62.527344 279.429688 L 66.582031 275.367188 C 67.148438 274.796875 67.148438 273.871094 66.582031 273.300781 C 66.011719 272.734375 65.089844 272.734375 64.519531 273.300781 L 61.625 276.203125 L 60.699219 275.273438 C 60.128906 274.703125 59.207031 274.703125 58.636719 275.273438 C 58.070312 275.84375 58.070312 276.769531 58.636719 277.339844 Z M 59.152344 275.792969 C 59.4375 275.507812 59.898438 275.507812 60.183594 275.792969 L 61.367188 276.976562 C 61.507812 277.121094 61.738281 277.121094 61.882812 276.976562 L 65.035156 273.820312 C 65.320312 273.535156 65.78125 273.535156 66.066406 273.820312 C 66.203125 273.957031 66.277344 274.140625 66.277344 274.335938 C 66.277344 274.527344 66.203125 274.710938 66.066406 274.851562 L 62.011719 278.910156 C 61.804688 279.117188 61.445312 279.117188 61.238281 278.910156 L 59.152344 276.824219 C 58.867188 276.539062 58.867188 276.074219 59.152344 275.792969 Z M 59.152344 275.792969 " fill-opacity="1" fill-rule="nonzero"/><path fill="#000000" d="M 76.410156 255.683594 C 76.410156 255.6875 76.410156 255.6875 76.410156 255.6875 C 76.570312 255.804688 76.796875 255.777344 76.921875 255.613281 C 77.042969 255.453125 77.011719 255.226562 76.851562 255.105469 C 76.695312 254.984375 76.457031 255.015625 76.339844 255.175781 C 76.21875 255.335938 76.25 255.5625 76.410156 255.683594 Z M 76.410156 255.683594 " fill-opacity="1" fill-rule="nonzero"/><path fill="#2b79c2" d="M 66.546875 317.519531 L 66.546875 319.394531 L 68.949219 319.394531 L 53.679688 334.609375 L 55.003906 335.9375 L 70.195312 320.800781 L 70.195312 323.042969 L 72.070312 323.042969 L 72.070312 317.519531 L 66.546875 317.519531 " fill-opacity="1" fill-rule="nonzero"/><g clip-path="url(#ae37369199)"><path fill="#2b79c2" d="M 69.632812 307.863281 L 68.304688 306.535156 L 53.117188 321.671875 L 53.117188 319.375 L 51.242188 319.375 L 51.242188 324.898438 L 56.765625 324.898438 L 56.765625 323.023438 L 54.414062 323.023438 L 69.632812 307.863281 " fill-opacity="1" fill-rule="nonzero"/></g><g clip-path="url(#ec60740591)"><path fill="#3b4652" d="M 48.84375 308.085938 C 48.671875 308.085938 48.53125 308.226562 48.53125 308.398438 L 48.53125 334.023438 C 48.53125 334.195312 48.671875 334.335938 48.84375 334.335938 L 74.46875 334.335938 C 74.640625 334.335938 74.78125 334.195312 74.78125 334.023438 L 74.78125 308.398438 C 74.78125 308.226562 74.640625 308.085938 74.46875 308.085938 Z M 74.46875 336.210938 L 48.84375 336.210938 C 47.636719 336.210938 46.65625 335.226562 46.65625 334.023438 L 46.65625 308.398438 C 46.65625 307.191406 47.636719 306.210938 48.84375 306.210938 L 74.46875 306.210938 C 75.675781 306.210938 76.65625 307.191406 76.65625 308.398438 L 76.65625 334.023438 C 76.65625 335.226562 75.675781 336.210938 74.46875 336.210938 " fill-opacity="1" fill-rule="nonzero"/></g><g fill="#000000" fill-opacity="1"><g transform="translate(91.842171, 283.059327)"><g><path d="M 5.453125 0 L 3.703125 0 L 0.421875 -8.625 L 1.796875 -8.625 L 4.515625 -1.453125 L 4.6875 -1.453125 L 7.375 -8.625 L 8.71875 -8.625 Z M 5.453125 0 "/></g></g></g><g fill="#000000" fill-opacity="1"><g transform="translate(100.972759, 283.059327)"><g><path d="M 8.21875 -4.015625 L 2.296875 -4.015625 C 2.328125 -2.972656 2.578125 -2.207031 3.046875 -1.71875 C 3.515625 -1.226562 4.15625 -0.984375 4.96875 -0.984375 C 5.582031 -0.984375 6.078125 -1.09375 6.453125 -1.3125 C 6.828125 -1.53125 7.117188 -1.875 7.328125 -2.34375 L 7.5 -2.34375 L 8.328125 -1.84375 C 8.078125 -1.21875 7.675781 -0.722656 7.125 -0.359375 C 6.570312 -0.00390625 5.851562 0.171875 4.96875 0.171875 C 4.132812 0.171875 3.414062 0.00390625 2.8125 -0.328125 C 2.21875 -0.660156 1.757812 -1.160156 1.4375 -1.828125 C 1.113281 -2.492188 0.953125 -3.320312 0.953125 -4.3125 C 0.953125 -5.289062 1.117188 -6.113281 1.453125 -6.78125 C 1.796875 -7.457031 2.265625 -7.957031 2.859375 -8.28125 C 3.453125 -8.613281 4.128906 -8.78125 4.890625 -8.78125 C 5.992188 -8.78125 6.851562 -8.46875 7.46875 -7.84375 C 8.09375 -7.226562 8.40625 -6.304688 8.40625 -5.078125 C 8.40625 -4.597656 8.394531 -4.273438 8.375 -4.109375 Z M 7.15625 -5.078125 C 7.132812 -5.992188 6.929688 -6.660156 6.546875 -7.078125 C 6.160156 -7.492188 5.609375 -7.703125 4.890625 -7.703125 C 4.128906 -7.703125 3.535156 -7.492188 3.109375 -7.078125 C 2.679688 -6.660156 2.421875 -5.992188 2.328125 -5.078125 Z M 7.15625 -5.078125 "/></g></g></g><g fill="#000000" fill-opacity="1"><g transform="translate(110.158016, 283.059327)"><g><path d="M 1.5 0 L 1.5 -8.625 L 2.71875 -8.625 L 2.71875 -7.265625 L 2.875 -7.234375 C 3.28125 -8.210938 4.035156 -8.703125 5.140625 -8.703125 C 5.734375 -8.703125 6.175781 -8.59375 6.46875 -8.375 L 6.140625 -7.296875 L 5.984375 -7.265625 C 5.660156 -7.429688 5.304688 -7.515625 4.921875 -7.515625 C 4.234375 -7.515625 3.703125 -7.253906 3.328125 -6.734375 C 2.960938 -6.222656 2.78125 -5.390625 2.78125 -4.234375 L 2.78125 0 Z M 1.5 0 "/></g></g></g><g fill="#000000" fill-opacity="1"><g transform="translate(116.81264, 283.059327)"><g><path d="M 1.734375 3.65625 C 1.441406 3.65625 1.164062 3.628906 0.90625 3.578125 C 0.65625 3.535156 0.441406 3.46875 0.265625 3.375 L 0.5 2.375 L 0.640625 2.328125 C 0.765625 2.390625 0.921875 2.441406 1.109375 2.484375 C 1.296875 2.523438 1.488281 2.546875 1.6875 2.546875 C 2.03125 2.546875 2.316406 2.5 2.546875 2.40625 C 2.773438 2.3125 2.972656 2.15625 3.140625 1.9375 C 3.304688 1.726562 3.457031 1.429688 3.59375 1.046875 L 3.90625 0.203125 L 0.4375 -8.625 L 1.8125 -8.625 L 4.53125 -1.59375 L 4.671875 -1.59375 L 7.296875 -8.625 L 8.609375 -8.625 L 4.75 1.359375 C 4.53125 1.910156 4.285156 2.351562 4.015625 2.6875 C 3.742188 3.019531 3.421875 3.265625 3.046875 3.421875 C 2.679688 3.578125 2.242188 3.65625 1.734375 3.65625 Z M 1.734375 3.65625 "/></g></g></g><g fill="#000000" fill-opacity="1"><g transform="translate(125.896364, 283.059327)"><g/></g></g><g fill="#000000" fill-opacity="1"><g transform="translate(129.817282, 283.059327)"><g><path d="M 1.5 0 L 1.5 -8.625 L 2.71875 -8.625 L 2.71875 -7.265625 L 2.875 -7.234375 C 3.28125 -8.210938 4.035156 -8.703125 5.140625 -8.703125 C 5.734375 -8.703125 6.175781 -8.59375 6.46875 -8.375 L 6.140625 -7.296875 L 5.984375 -7.265625 C 5.660156 -7.429688 5.304688 -7.515625 4.921875 -7.515625 C 4.234375 -7.515625 3.703125 -7.253906 3.328125 -6.734375 C 2.960938 -6.222656 2.78125 -5.390625 2.78125 -4.234375 L 2.78125 0 Z M 1.5 0 "/></g></g></g><g fill="#000000" fill-opacity="1"><g transform="translate(136.471906, 283.059327)"><g><path d="M 8.21875 -4.015625 L 2.296875 -4.015625 C 2.328125 -2.972656 2.578125 -2.207031 3.046875 -1.71875 C 3.515625 -1.226562 4.15625 -0.984375 4.96875 -0.984375 C 5.582031 -0.984375 6.078125 -1.09375 6.453125 -1.3125 C 6.828125 -1.53125 7.117188 -1.875 7.328125 -2.34375 L 7.5 -2.34375 L 8.328125 -1.84375 C 8.078125 -1.21875 7.675781 -0.722656 7.125 -0.359375 C 6.570312 -0.00390625 5.851562 0.171875 4.96875 0.171875 C 4.132812 0.171875 3.414062 0.00390625 2.8125 -0.328125 C 2.21875 -0.660156 1.757812 -1.160156 1.4375 -1.828125 C 1.113281 -2.492188 0.953125 -3.320312 0.953125 -4.3125 C 0.953125 -5.289062 1.117188 -6.113281 1.453125 -6.78125 C 1.796875 -7.457031 2.265625 -7.957031 2.859375 -8.28125 C 3.453125 -8.613281 4.128906 -8.78125 4.890625 -8.78125 C 5.992188 -8.78125 6.851562 -8.46875 7.46875 -7.84375 C 8.09375 -7.226562 8.40625 -6.304688 8.40625 -5.078125 C 8.40625 -4.597656 8.394531 -4.273438 8.375 -4.109375 Z M 7.15625 -5.078125 C 7.132812 -5.992188 6.929688 -6.660156 6.546875 -7.078125 C 6.160156 -7.492188 5.609375 -7.703125 4.890625 -7.703125 C 4.128906 -7.703125 3.535156 -7.492188 3.109375 -7.078125 C 2.679688 -6.660156 2.421875 -5.992188 2.328125 -5.078125 Z M 7.15625 -5.078125 "/></g></g></g><g fill="#000000" fill-opacity="1"><g transform="translate(145.657163, 283.059327)"><g><path d="M 3.4375 0.171875 C 2.820312 0.171875 2.335938 0 1.984375 -0.34375 C 1.640625 -0.695312 1.46875 -1.21875 1.46875 -1.90625 L 1.46875 -12.078125 L 2.75 -12.078125 L 2.75 -2 C 2.75 -1.632812 2.816406 -1.375 2.953125 -1.21875 C 3.085938 -1.0625 3.300781 -0.984375 3.59375 -0.984375 C 3.769531 -0.984375 3.953125 -1.007812 4.140625 -1.0625 L 4.25 -1.03125 L 4.390625 -0.03125 C 4.296875 0.03125 4.160156 0.078125 3.984375 0.109375 C 3.816406 0.148438 3.632812 0.171875 3.4375 0.171875 Z M 3.4375 0.171875 "/></g></g></g><g fill="#000000" fill-opacity="1"><g transform="translate(150.343518, 283.059327)"><g><path d="M 2.140625 -10.28125 C 1.867188 -10.28125 1.648438 -10.363281 1.484375 -10.53125 C 1.316406 -10.707031 1.234375 -10.925781 1.234375 -11.1875 C 1.234375 -11.445312 1.316406 -11.660156 1.484375 -11.828125 C 1.648438 -11.992188 1.867188 -12.078125 2.140625 -12.078125 C 2.410156 -12.078125 2.628906 -11.992188 2.796875 -11.828125 C 2.972656 -11.660156 3.0625 -11.445312 3.0625 -11.1875 C 3.0625 -10.925781 2.972656 -10.707031 2.796875 -10.53125 C 2.628906 -10.363281 2.410156 -10.28125 2.140625 -10.28125 Z M 1.5 0 L 1.5 -8.625 L 2.78125 -8.625 L 2.78125 0 Z M 1.5 0 "/></g></g></g><g fill="#000000" fill-opacity="1"><g transform="translate(154.615917, 283.059327)"><g><path d="M 3.5625 0.171875 C 2.707031 0.171875 2.039062 -0.0507812 1.5625 -0.5 C 1.09375 -0.945312 0.859375 -1.582031 0.859375 -2.40625 C 0.859375 -2.914062 0.960938 -3.34375 1.171875 -3.6875 C 1.378906 -4.039062 1.703125 -4.328125 2.140625 -4.546875 C 2.585938 -4.773438 3.171875 -4.945312 3.890625 -5.0625 C 4.515625 -5.164062 4.988281 -5.28125 5.3125 -5.40625 C 5.632812 -5.539062 5.851562 -5.6875 5.96875 -5.84375 C 6.082031 -6.007812 6.140625 -6.21875 6.140625 -6.46875 C 6.140625 -6.851562 6.003906 -7.148438 5.734375 -7.359375 C 5.460938 -7.566406 5.03125 -7.671875 4.4375 -7.671875 C 3.882812 -7.671875 3.40625 -7.5625 3 -7.34375 C 2.601562 -7.132812 2.238281 -6.816406 1.90625 -6.390625 L 1.75 -6.390625 L 1.125 -7.265625 C 1.488281 -7.734375 1.953125 -8.101562 2.515625 -8.375 C 3.078125 -8.644531 3.71875 -8.78125 4.4375 -8.78125 C 5.457031 -8.78125 6.207031 -8.554688 6.6875 -8.109375 C 7.164062 -7.671875 7.40625 -7.054688 7.40625 -6.265625 L 7.40625 -1.703125 C 7.40625 -1.222656 7.609375 -0.984375 8.015625 -0.984375 C 8.148438 -0.984375 8.28125 -1.003906 8.40625 -1.046875 L 8.515625 -1.015625 L 8.671875 -0.140625 C 8.578125 -0.078125 8.453125 -0.03125 8.296875 0 C 8.140625 0.0390625 7.984375 0.0625 7.828125 0.0625 C 7.347656 0.0625 6.988281 -0.0390625 6.75 -0.25 C 6.507812 -0.457031 6.351562 -0.765625 6.28125 -1.171875 L 6.125 -1.1875 C 5.875 -0.738281 5.539062 -0.398438 5.125 -0.171875 C 4.707031 0.0546875 4.1875 0.171875 3.5625 0.171875 Z M 3.84375 -0.859375 C 4.320312 -0.859375 4.734375 -0.96875 5.078125 -1.1875 C 5.429688 -1.40625 5.703125 -1.710938 5.890625 -2.109375 C 6.078125 -2.515625 6.171875 -2.984375 6.171875 -3.515625 L 6.171875 -4.609375 L 6.03125 -4.640625 C 5.832031 -4.503906 5.59375 -4.390625 5.3125 -4.296875 C 5.039062 -4.203125 4.660156 -4.117188 4.171875 -4.046875 C 3.671875 -3.984375 3.269531 -3.878906 2.96875 -3.734375 C 2.675781 -3.597656 2.46875 -3.421875 2.34375 -3.203125 C 2.21875 -2.984375 2.15625 -2.71875 2.15625 -2.40625 C 2.15625 -1.894531 2.300781 -1.507812 2.59375 -1.25 C 2.894531 -0.988281 3.3125 -0.859375 3.84375 -0.859375 Z M 3.84375 -0.859375 "/></g></g></g><g fill="#000000" fill-opacity="1"><g transform="translate(163.527809, 283.059327)"><g><path d="M 5.734375 0.171875 C 5.085938 0.171875 4.53125 0.046875 4.0625 -0.203125 C 3.59375 -0.453125 3.21875 -0.78125 2.9375 -1.1875 L 2.78125 -1.15625 L 2.78125 0 L 1.5 0 L 1.5 -12.078125 L 2.78125 -12.078125 L 2.78125 -7.328125 L 2.9375 -7.296875 C 3.59375 -8.285156 4.546875 -8.78125 5.796875 -8.78125 C 6.503906 -8.78125 7.125 -8.613281 7.65625 -8.28125 C 8.1875 -7.957031 8.597656 -7.460938 8.890625 -6.796875 C 9.191406 -6.128906 9.34375 -5.300781 9.34375 -4.3125 C 9.34375 -3.332031 9.1875 -2.503906 8.875 -1.828125 C 8.5625 -1.160156 8.132812 -0.660156 7.59375 -0.328125 C 7.050781 0.00390625 6.429688 0.171875 5.734375 0.171875 Z M 5.421875 -0.984375 C 7.140625 -0.984375 8 -2.09375 8 -4.3125 C 8 -5.457031 7.773438 -6.296875 7.328125 -6.828125 C 6.878906 -7.367188 6.242188 -7.640625 5.421875 -7.640625 C 4.617188 -7.640625 3.976562 -7.363281 3.5 -6.8125 C 3.019531 -6.269531 2.78125 -5.4375 2.78125 -4.3125 C 2.78125 -3.1875 3.019531 -2.347656 3.5 -1.796875 C 3.976562 -1.253906 4.617188 -0.984375 5.421875 -0.984375 Z M 5.421875 -0.984375 "/></g></g></g><g fill="#000000" fill-opacity="1"><g transform="translate(173.806548, 283.059327)"><g><path d="M 3.4375 0.171875 C 2.820312 0.171875 2.335938 0 1.984375 -0.34375 C 1.640625 -0.695312 1.46875 -1.21875 1.46875 -1.90625 L 1.46875 -12.078125 L 2.75 -12.078125 L 2.75 -2 C 2.75 -1.632812 2.816406 -1.375 2.953125 -1.21875 C 3.085938 -1.0625 3.300781 -0.984375 3.59375 -0.984375 C 3.769531 -0.984375 3.953125 -1.007812 4.140625 -1.0625 L 4.25 -1.03125 L 4.390625 -0.03125 C 4.296875 0.03125 4.160156 0.078125 3.984375 0.109375 C 3.816406 0.148438 3.632812 0.171875 3.4375 0.171875 Z M 3.4375 0.171875 "/></g></g></g><g fill="#000000" fill-opacity="1"><g transform="translate(178.492903, 283.059327)"><g><path d="M 8.21875 -4.015625 L 2.296875 -4.015625 C 2.328125 -2.972656 2.578125 -2.207031 3.046875 -1.71875 C 3.515625 -1.226562 4.15625 -0.984375 4.96875 -0.984375 C 5.582031 -0.984375 6.078125 -1.09375 6.453125 -1.3125 C 6.828125 -1.53125 7.117188 -1.875 7.328125 -2.34375 L 7.5 -2.34375 L 8.328125 -1.84375 C 8.078125 -1.21875 7.675781 -0.722656 7.125 -0.359375 C 6.570312 -0.00390625 5.851562 0.171875 4.96875 0.171875 C 4.132812 0.171875 3.414062 0.00390625 2.8125 -0.328125 C 2.21875 -0.660156 1.757812 -1.160156 1.4375 -1.828125 C 1.113281 -2.492188 0.953125 -3.320312 0.953125 -4.3125 C 0.953125 -5.289062 1.117188 -6.113281 1.453125 -6.78125 C 1.796875 -7.457031 2.265625 -7.957031 2.859375 -8.28125 C 3.453125 -8.613281 4.128906 -8.78125 4.890625 -8.78125 C 5.992188 -8.78125 6.851562 -8.46875 7.46875 -7.84375 C 8.09375 -7.226562 8.40625 -6.304688 8.40625 -5.078125 C 8.40625 -4.597656 8.394531 -4.273438 8.375 -4.109375 Z M 7.15625 -5.078125 C 7.132812 -5.992188 6.929688 -6.660156 6.546875 -7.078125 C 6.160156 -7.492188 5.609375 -7.703125 4.890625 -7.703125 C 4.128906 -7.703125 3.535156 -7.492188 3.109375 -7.078125 C 2.679688 -6.660156 2.421875 -5.992188 2.328125 -5.078125 Z M 7.15625 -5.078125 "/></g></g></g><g fill="#000000" fill-opacity="1"><g transform="translate(187.67816, 283.059327)"><g/></g></g><g fill="#000000" fill-opacity="1"><g transform="translate(191.599077, 283.059327)"><g><path d="M 1.5 0 L 1.5 -8.625 L 2.71875 -8.625 L 2.71875 -7.34375 L 2.875 -7.3125 C 3.164062 -7.800781 3.519531 -8.164062 3.9375 -8.40625 C 4.351562 -8.65625 4.847656 -8.78125 5.421875 -8.78125 C 6.085938 -8.78125 6.601562 -8.65625 6.96875 -8.40625 C 7.332031 -8.15625 7.617188 -7.75 7.828125 -7.1875 L 7.984375 -7.1875 C 8.285156 -7.707031 8.648438 -8.101562 9.078125 -8.375 C 9.515625 -8.644531 10.050781 -8.78125 10.6875 -8.78125 C 11.570312 -8.78125 12.234375 -8.539062 12.671875 -8.0625 C 13.109375 -7.582031 13.328125 -6.851562 13.328125 -5.875 L 13.328125 0 L 12.046875 0 L 12.046875 -5.84375 C 12.046875 -6.46875 11.914062 -6.925781 11.65625 -7.21875 C 11.394531 -7.519531 10.972656 -7.671875 10.390625 -7.671875 C 9.703125 -7.671875 9.140625 -7.421875 8.703125 -6.921875 C 8.265625 -6.421875 8.046875 -5.597656 8.046875 -4.453125 L 8.046875 0 L 6.78125 0 L 6.78125 -5.84375 C 6.78125 -6.46875 6.644531 -6.925781 6.375 -7.21875 C 6.113281 -7.519531 5.691406 -7.671875 5.109375 -7.671875 C 4.421875 -7.671875 3.859375 -7.425781 3.421875 -6.9375 C 2.992188 -6.457031 2.78125 -5.675781 2.78125 -4.59375 L 2.78125 0 Z M 1.5 0 "/></g></g></g><g fill="#000000" fill-opacity="1"><g transform="translate(206.28299, 283.059327)"><g><path d="M 3.5625 0.171875 C 2.707031 0.171875 2.039062 -0.0507812 1.5625 -0.5 C 1.09375 -0.945312 0.859375 -1.582031 0.859375 -2.40625 C 0.859375 -2.914062 0.960938 -3.34375 1.171875 -3.6875 C 1.378906 -4.039062 1.703125 -4.328125 2.140625 -4.546875 C 2.585938 -4.773438 3.171875 -4.945312 3.890625 -5.0625 C 4.515625 -5.164062 4.988281 -5.28125 5.3125 -5.40625 C 5.632812 -5.539062 5.851562 -5.6875 5.96875 -5.84375 C 6.082031 -6.007812 6.140625 -6.21875 6.140625 -6.46875 C 6.140625 -6.851562 6.003906 -7.148438 5.734375 -7.359375 C 5.460938 -7.566406 5.03125 -7.671875 4.4375 -7.671875 C 3.882812 -7.671875 3.40625 -7.5625 3 -7.34375 C 2.601562 -7.132812 2.238281 -6.816406 1.90625 -6.390625 L 1.75 -6.390625 L 1.125 -7.265625 C 1.488281 -7.734375 1.953125 -8.101562 2.515625 -8.375 C 3.078125 -8.644531 3.71875 -8.78125 4.4375 -8.78125 C 5.457031 -8.78125 6.207031 -8.554688 6.6875 -8.109375 C 7.164062 -7.671875 7.40625 -7.054688 7.40625 -6.265625 L 7.40625 -1.703125 C 7.40625 -1.222656 7.609375 -0.984375 8.015625 -0.984375 C 8.148438 -0.984375 8.28125 -1.003906 8.40625 -1.046875 L 8.515625 -1.015625 L 8.671875 -0.140625 C 8.578125 -0.078125 8.453125 -0.03125 8.296875 0 C 8.140625 0.0390625 7.984375 0.0625 7.828125 0.0625 C 7.347656 0.0625 6.988281 -0.0390625 6.75 -0.25 C 6.507812 -0.457031 6.351562 -0.765625 6.28125 -1.171875 L 6.125 -1.1875 C 5.875 -0.738281 5.539062 -0.398438 5.125 -0.171875 C 4.707031 0.0546875 4.1875 0.171875 3.5625 0.171875 Z M 3.84375 -0.859375 C 4.320312 -0.859375 4.734375 -0.96875 5.078125 -1.1875 C 5.429688 -1.40625 5.703125 -1.710938 5.890625 -2.109375 C 6.078125 -2.515625 6.171875 -2.984375 6.171875 -3.515625 L 6.171875 -4.609375 L 6.03125 -4.640625 C 5.832031 -4.503906 5.59375 -4.390625 5.3125 -4.296875 C 5.039062 -4.203125 4.660156 -4.117188 4.171875 -4.046875 C 3.671875 -3.984375 3.269531 -3.878906 2.96875 -3.734375 C 2.675781 -3.597656 2.46875 -3.421875 2.34375 -3.203125 C 2.21875 -2.984375 2.15625 -2.71875 2.15625 -2.40625 C 2.15625 -1.894531 2.300781 -1.507812 2.59375 -1.25 C 2.894531 -0.988281 3.3125 -0.859375 3.84375 -0.859375 Z M 3.84375 -0.859375 "/></g></g></g><g fill="#000000" fill-opacity="1"><g transform="translate(215.194881, 283.059327)"><g><path d="M 1.5 0 L 1.5 -8.625 L 2.71875 -8.625 L 2.71875 -7.265625 L 2.875 -7.234375 C 3.164062 -7.734375 3.53125 -8.113281 3.96875 -8.375 C 4.414062 -8.644531 4.960938 -8.78125 5.609375 -8.78125 C 6.640625 -8.78125 7.390625 -8.515625 7.859375 -7.984375 C 8.328125 -7.460938 8.5625 -6.648438 8.5625 -5.546875 L 8.5625 0 L 7.28125 0 L 7.28125 -5.515625 C 7.28125 -6.035156 7.210938 -6.453125 7.078125 -6.765625 C 6.953125 -7.085938 6.75 -7.316406 6.46875 -7.453125 C 6.1875 -7.597656 5.820312 -7.671875 5.375 -7.671875 C 4.59375 -7.671875 3.960938 -7.414062 3.484375 -6.90625 C 3.015625 -6.394531 2.78125 -5.566406 2.78125 -4.421875 L 2.78125 0 Z M 1.5 0 "/></g></g></g><g fill="#000000" fill-opacity="1"><g transform="translate(225.114333, 283.059327)"><g><path d="M 3.5625 0.171875 C 2.707031 0.171875 2.039062 -0.0507812 1.5625 -0.5 C 1.09375 -0.945312 0.859375 -1.582031 0.859375 -2.40625 C 0.859375 -2.914062 0.960938 -3.34375 1.171875 -3.6875 C 1.378906 -4.039062 1.703125 -4.328125 2.140625 -4.546875 C 2.585938 -4.773438 3.171875 -4.945312 3.890625 -5.0625 C 4.515625 -5.164062 4.988281 -5.28125 5.3125 -5.40625 C 5.632812 -5.539062 5.851562 -5.6875 5.96875 -5.84375 C 6.082031 -6.007812 6.140625 -6.21875 6.140625 -6.46875 C 6.140625 -6.851562 6.003906 -7.148438 5.734375 -7.359375 C 5.460938 -7.566406 5.03125 -7.671875 4.4375 -7.671875 C 3.882812 -7.671875 3.40625 -7.5625 3 -7.34375 C 2.601562 -7.132812 2.238281 -6.816406 1.90625 -6.390625 L 1.75 -6.390625 L 1.125 -7.265625 C 1.488281 -7.734375 1.953125 -8.101562 2.515625 -8.375 C 3.078125 -8.644531 3.71875 -8.78125 4.4375 -8.78125 C 5.457031 -8.78125 6.207031 -8.554688 6.6875 -8.109375 C 7.164062 -7.671875 7.40625 -7.054688 7.40625 -6.265625 L 7.40625 -1.703125 C 7.40625 -1.222656 7.609375 -0.984375 8.015625 -0.984375 C 8.148438 -0.984375 8.28125 -1.003906 8.40625 -1.046875 L 8.515625 -1.015625 L 8.671875 -0.140625 C 8.578125 -0.078125 8.453125 -0.03125 8.296875 0 C 8.140625 0.0390625 7.984375 0.0625 7.828125 0.0625 C 7.347656 0.0625 6.988281 -0.0390625 6.75 -0.25 C 6.507812 -0.457031 6.351562 -0.765625 6.28125 -1.171875 L 6.125 -1.1875 C 5.875 -0.738281 5.539062 -0.398438 5.125 -0.171875 C 4.707031 0.0546875 4.1875 0.171875 3.5625 0.171875 Z M 3.84375 -0.859375 C 4.320312 -0.859375 4.734375 -0.96875 5.078125 -1.1875 C 5.429688 -1.40625 5.703125 -1.710938 5.890625 -2.109375 C 6.078125 -2.515625 6.171875 -2.984375 6.171875 -3.515625 L 6.171875 -4.609375 L 6.03125 -4.640625 C 5.832031 -4.503906 5.59375 -4.390625 5.3125 -4.296875 C 5.039062 -4.203125 4.660156 -4.117188 4.171875 -4.046875 C 3.671875 -3.984375 3.269531 -3.878906 2.96875 -3.734375 C 2.675781 -3.597656 2.46875 -3.421875 2.34375 -3.203125 C 2.21875 -2.984375 2.15625 -2.71875 2.15625 -2.40625 C 2.15625 -1.894531 2.300781 -1.507812 2.59375 -1.25 C 2.894531 -0.988281 3.3125 -0.859375 3.84375 -0.859375 Z M 3.84375 -0.859375 "/></g></g></g><g fill="#000000" fill-opacity="1"><g transform="translate(234.026225, 283.059327)"><g><path d="M 4.4375 3.65625 C 3.082031 3.65625 2.09375 3.425781 1.46875 2.96875 C 0.84375 2.519531 0.53125 1.921875 0.53125 1.171875 C 0.53125 0.691406 0.675781 0.304688 0.96875 0.015625 C 1.257812 -0.273438 1.679688 -0.484375 2.234375 -0.609375 L 2.234375 -0.765625 C 1.972656 -0.921875 1.773438 -1.097656 1.640625 -1.296875 C 1.503906 -1.503906 1.4375 -1.75 1.4375 -2.03125 C 1.4375 -2.363281 1.539062 -2.632812 1.75 -2.84375 C 1.96875 -3.050781 2.285156 -3.207031 2.703125 -3.3125 L 2.703125 -3.484375 C 1.765625 -3.972656 1.296875 -4.773438 1.296875 -5.890625 C 1.296875 -6.453125 1.421875 -6.953125 1.671875 -7.390625 C 1.929688 -7.828125 2.296875 -8.164062 2.765625 -8.40625 C 3.242188 -8.65625 3.796875 -8.78125 4.421875 -8.78125 C 5.148438 -8.78125 5.753906 -8.625 6.234375 -8.3125 C 6.421875 -8.507812 6.554688 -8.722656 6.640625 -8.953125 C 6.734375 -9.191406 6.796875 -9.457031 6.828125 -9.75 L 6.984375 -9.84375 L 8.03125 -9.59375 C 7.976562 -9.15625 7.847656 -8.785156 7.640625 -8.484375 C 7.429688 -8.179688 7.132812 -7.929688 6.75 -7.734375 L 6.75 -7.578125 C 7.019531 -7.359375 7.222656 -7.097656 7.359375 -6.796875 C 7.492188 -6.503906 7.5625 -6.164062 7.5625 -5.78125 C 7.5625 -5.238281 7.429688 -4.75 7.171875 -4.3125 C 6.910156 -3.882812 6.539062 -3.546875 6.0625 -3.296875 C 5.59375 -3.046875 5.046875 -2.921875 4.421875 -2.921875 C 4.347656 -2.921875 4.21875 -2.925781 4.03125 -2.9375 C 3.820312 -2.945312 3.671875 -2.953125 3.578125 -2.953125 C 3.304688 -2.953125 3.085938 -2.878906 2.921875 -2.734375 C 2.765625 -2.597656 2.6875 -2.421875 2.6875 -2.203125 C 2.6875 -1.929688 2.769531 -1.734375 2.9375 -1.609375 C 3.113281 -1.484375 3.40625 -1.410156 3.8125 -1.390625 L 5.84375 -1.328125 C 6.726562 -1.296875 7.378906 -1.085938 7.796875 -0.703125 C 8.222656 -0.328125 8.4375 0.207031 8.4375 0.90625 C 8.4375 1.414062 8.296875 1.878906 8.015625 2.296875 C 7.742188 2.710938 7.304688 3.039062 6.703125 3.28125 C 6.109375 3.53125 5.351562 3.65625 4.4375 3.65625 Z M 4.421875 -4.015625 C 5.035156 -4.015625 5.507812 -4.171875 5.84375 -4.484375 C 6.175781 -4.804688 6.34375 -5.253906 6.34375 -5.828125 C 6.34375 -6.421875 6.175781 -6.878906 5.84375 -7.203125 C 5.507812 -7.523438 5.035156 -7.6875 4.421875 -7.6875 C 3.804688 -7.6875 3.335938 -7.523438 3.015625 -7.203125 C 2.691406 -6.890625 2.53125 -6.429688 2.53125 -5.828125 C 2.53125 -5.253906 2.691406 -4.804688 3.015625 -4.484375 C 3.335938 -4.171875 3.804688 -4.015625 4.421875 -4.015625 Z M 4.4375 2.5625 C 5.070312 2.5625 5.59375 2.488281 6 2.34375 C 6.40625 2.207031 6.695312 2.023438 6.875 1.796875 C 7.050781 1.566406 7.140625 1.304688 7.140625 1.015625 C 7.140625 0.765625 7.085938 0.5625 6.984375 0.40625 C 6.890625 0.25 6.734375 0.128906 6.515625 0.046875 C 6.304688 -0.0351562 6.019531 -0.0859375 5.65625 -0.109375 L 3.71875 -0.203125 L 3.453125 -0.203125 C 2.367188 -0.179688 1.828125 0.238281 1.828125 1.0625 C 1.828125 2.0625 2.695312 2.5625 4.4375 2.5625 Z M 4.4375 2.5625 "/></g></g></g><g fill="#000000" fill-opacity="1"><g transform="translate(242.852194, 283.059327)"><g><path d="M 8.21875 -4.015625 L 2.296875 -4.015625 C 2.328125 -2.972656 2.578125 -2.207031 3.046875 -1.71875 C 3.515625 -1.226562 4.15625 -0.984375 4.96875 -0.984375 C 5.582031 -0.984375 6.078125 -1.09375 6.453125 -1.3125 C 6.828125 -1.53125 7.117188 -1.875 7.328125 -2.34375 L 7.5 -2.34375 L 8.328125 -1.84375 C 8.078125 -1.21875 7.675781 -0.722656 7.125 -0.359375 C 6.570312 -0.00390625 5.851562 0.171875 4.96875 0.171875 C 4.132812 0.171875 3.414062 0.00390625 2.8125 -0.328125 C 2.21875 -0.660156 1.757812 -1.160156 1.4375 -1.828125 C 1.113281 -2.492188 0.953125 -3.320312 0.953125 -4.3125 C 0.953125 -5.289062 1.117188 -6.113281 1.453125 -6.78125 C 1.796875 -7.457031 2.265625 -7.957031 2.859375 -8.28125 C 3.453125 -8.613281 4.128906 -8.78125 4.890625 -8.78125 C 5.992188 -8.78125 6.851562 -8.46875 7.46875 -7.84375 C 8.09375 -7.226562 8.40625 -6.304688 8.40625 -5.078125 C 8.40625 -4.597656 8.394531 -4.273438 8.375 -4.109375 Z M 7.15625 -5.078125 C 7.132812 -5.992188 6.929688 -6.660156 6.546875 -7.078125 C 6.160156 -7.492188 5.609375 -7.703125 4.890625 -7.703125 C 4.128906 -7.703125 3.535156 -7.492188 3.109375 -7.078125 C 2.679688 -6.660156 2.421875 -5.992188 2.328125 -5.078125 Z M 7.15625 -5.078125 "/></g></g></g><g fill="#000000" fill-opacity="1"><g transform="translate(252.03745, 283.059327)"><g><path d="M 1.5 0 L 1.5 -8.625 L 2.71875 -8.625 L 2.71875 -7.34375 L 2.875 -7.3125 C 3.164062 -7.800781 3.519531 -8.164062 3.9375 -8.40625 C 4.351562 -8.65625 4.847656 -8.78125 5.421875 -8.78125 C 6.085938 -8.78125 6.601562 -8.65625 6.96875 -8.40625 C 7.332031 -8.15625 7.617188 -7.75 7.828125 -7.1875 L 7.984375 -7.1875 C 8.285156 -7.707031 8.648438 -8.101562 9.078125 -8.375 C 9.515625 -8.644531 10.050781 -8.78125 10.6875 -8.78125 C 11.570312 -8.78125 12.234375 -8.539062 12.671875 -8.0625 C 13.109375 -7.582031 13.328125 -6.851562 13.328125 -5.875 L 13.328125 0 L 12.046875 0 L 12.046875 -5.84375 C 12.046875 -6.46875 11.914062 -6.925781 11.65625 -7.21875 C 11.394531 -7.519531 10.972656 -7.671875 10.390625 -7.671875 C 9.703125 -7.671875 9.140625 -7.421875 8.703125 -6.921875 C 8.265625 -6.421875 8.046875 -5.597656 8.046875 -4.453125 L 8.046875 0 L 6.78125 0 L 6.78125 -5.84375 C 6.78125 -6.46875 6.644531 -6.925781 6.375 -7.21875 C 6.113281 -7.519531 5.691406 -7.671875 5.109375 -7.671875 C 4.421875 -7.671875 3.859375 -7.425781 3.421875 -6.9375 C 2.992188 -6.457031 2.78125 -5.675781 2.78125 -4.59375 L 2.78125 0 Z M 1.5 0 "/></g></g></g><g fill="#000000" fill-opacity="1"><g transform="translate(266.721363, 283.059327)"><g><path d="M 8.21875 -4.015625 L 2.296875 -4.015625 C 2.328125 -2.972656 2.578125 -2.207031 3.046875 -1.71875 C 3.515625 -1.226562 4.15625 -0.984375 4.96875 -0.984375 C 5.582031 -0.984375 6.078125 -1.09375 6.453125 -1.3125 C 6.828125 -1.53125 7.117188 -1.875 7.328125 -2.34375 L 7.5 -2.34375 L 8.328125 -1.84375 C 8.078125 -1.21875 7.675781 -0.722656 7.125 -0.359375 C 6.570312 -0.00390625 5.851562 0.171875 4.96875 0.171875 C 4.132812 0.171875 3.414062 0.00390625 2.8125 -0.328125 C 2.21875 -0.660156 1.757812 -1.160156 1.4375 -1.828125 C 1.113281 -2.492188 0.953125 -3.320312 0.953125 -4.3125 C 0.953125 -5.289062 1.117188 -6.113281 1.453125 -6.78125 C 1.796875 -7.457031 2.265625 -7.957031 2.859375 -8.28125 C 3.453125 -8.613281 4.128906 -8.78125 4.890625 -8.78125 C 5.992188 -8.78125 6.851562 -8.46875 7.46875 -7.84375 C 8.09375 -7.226562 8.40625 -6.304688 8.40625 -5.078125 C 8.40625 -4.597656 8.394531 -4.273438 8.375 -4.109375 Z M 7.15625 -5.078125 C 7.132812 -5.992188 6.929688 -6.660156 6.546875 -7.078125 C 6.160156 -7.492188 5.609375 -7.703125 4.890625 -7.703125 C 4.128906 -7.703125 3.535156 -7.492188 3.109375 -7.078125 C 2.679688 -6.660156 2.421875 -5.992188 2.328125 -5.078125 Z M 7.15625 -5.078125 "/></g></g></g><g fill="#000000" fill-opacity="1"><g transform="translate(275.90662, 283.059327)"><g><path d="M 1.5 0 L 1.5 -8.625 L 2.71875 -8.625 L 2.71875 -7.265625 L 2.875 -7.234375 C 3.164062 -7.734375 3.53125 -8.113281 3.96875 -8.375 C 4.414062 -8.644531 4.960938 -8.78125 5.609375 -8.78125 C 6.640625 -8.78125 7.390625 -8.515625 7.859375 -7.984375 C 8.328125 -7.460938 8.5625 -6.648438 8.5625 -5.546875 L 8.5625 0 L 7.28125 0 L 7.28125 -5.515625 C 7.28125 -6.035156 7.210938 -6.453125 7.078125 -6.765625 C 6.953125 -7.085938 6.75 -7.316406 6.46875 -7.453125 C 6.1875 -7.597656 5.820312 -7.671875 5.375 -7.671875 C 4.59375 -7.671875 3.960938 -7.414062 3.484375 -6.90625 C 3.015625 -6.394531 2.78125 -5.566406 2.78125 -4.421875 L 2.78125 0 Z M 1.5 0 "/></g></g></g><g fill="#000000" fill-opacity="1"><g transform="translate(285.82606, 283.059327)"><g><path d="M 5.828125 -1.375 L 6.234375 -0.453125 C 6.035156 -0.253906 5.769531 -0.101562 5.4375 0 C 5.101562 0.113281 4.742188 0.171875 4.359375 0.171875 C 2.710938 0.171875 1.890625 -0.664062 1.890625 -2.34375 L 1.890625 -7.578125 L 0.390625 -7.578125 L 0.390625 -8.625 L 1.890625 -8.625 L 1.890625 -10.453125 L 3.171875 -10.65625 L 3.171875 -8.625 L 5.9375 -8.625 L 5.9375 -7.578125 L 3.171875 -7.578125 L 3.171875 -2.46875 C 3.171875 -1.476562 3.597656 -0.984375 4.453125 -0.984375 C 4.921875 -0.984375 5.328125 -1.113281 5.671875 -1.375 Z M 5.828125 -1.375 "/></g></g></g><g fill="#000000" fill-opacity="1"><g transform="translate(292.386958, 283.059327)"><g><path d="M 5.828125 -1.375 L 6.234375 -0.453125 C 6.035156 -0.253906 5.769531 -0.101562 5.4375 0 C 5.101562 0.113281 4.742188 0.171875 4.359375 0.171875 C 2.710938 0.171875 1.890625 -0.664062 1.890625 -2.34375 L 1.890625 -7.578125 L 0.390625 -7.578125 L 0.390625 -8.625 L 1.890625 -8.625 L 1.890625 -10.453125 L 3.171875 -10.65625 L 3.171875 -8.625 L 5.9375 -8.625 L 5.9375 -7.578125 L 3.171875 -7.578125 L 3.171875 -2.46875 C 3.171875 -1.476562 3.597656 -0.984375 4.453125 -0.984375 C 4.921875 -0.984375 5.328125 -1.113281 5.671875 -1.375 Z M 5.828125 -1.375 "/></g></g></g><g fill="#000000" fill-opacity="1"><g transform="translate(91.842171, 326.969861)"><g><path d="M 3.4375 0.171875 C 2.820312 0.171875 2.335938 0 1.984375 -0.34375 C 1.640625 -0.695312 1.46875 -1.21875 1.46875 -1.90625 L 1.46875 -12.078125 L 2.75 -12.078125 L 2.75 -2 C 2.75 -1.632812 2.816406 -1.375 2.953125 -1.21875 C 3.085938 -1.0625 3.300781 -0.984375 3.59375 -0.984375 C 3.769531 -0.984375 3.953125 -1.007812 4.140625 -1.0625 L 4.25 -1.03125 L 4.390625 -0.03125 C 4.296875 0.03125 4.160156 0.078125 3.984375 0.109375 C 3.816406 0.148438 3.632812 0.171875 3.4375 0.171875 Z M 3.4375 0.171875 "/></g></g></g><g fill="#000000" fill-opacity="1"><g transform="translate(96.528527, 326.969861)"><g><path d="M 8.21875 -4.015625 L 2.296875 -4.015625 C 2.328125 -2.972656 2.578125 -2.207031 3.046875 -1.71875 C 3.515625 -1.226562 4.15625 -0.984375 4.96875 -0.984375 C 5.582031 -0.984375 6.078125 -1.09375 6.453125 -1.3125 C 6.828125 -1.53125 7.117188 -1.875 7.328125 -2.34375 L 7.5 -2.34375 L 8.328125 -1.84375 C 8.078125 -1.21875 7.675781 -0.722656 7.125 -0.359375 C 6.570312 -0.00390625 5.851562 0.171875 4.96875 0.171875 C 4.132812 0.171875 3.414062 0.00390625 2.8125 -0.328125 C 2.21875 -0.660156 1.757812 -1.160156 1.4375 -1.828125 C 1.113281 -2.492188 0.953125 -3.320312 0.953125 -4.3125 C 0.953125 -5.289062 1.117188 -6.113281 1.453125 -6.78125 C 1.796875 -7.457031 2.265625 -7.957031 2.859375 -8.28125 C 3.453125 -8.613281 4.128906 -8.78125 4.890625 -8.78125 C 5.992188 -8.78125 6.851562 -8.46875 7.46875 -7.84375 C 8.09375 -7.226562 8.40625 -6.304688 8.40625 -5.078125 C 8.40625 -4.597656 8.394531 -4.273438 8.375 -4.109375 Z M 7.15625 -5.078125 C 7.132812 -5.992188 6.929688 -6.660156 6.546875 -7.078125 C 6.160156 -7.492188 5.609375 -7.703125 4.890625 -7.703125 C 4.128906 -7.703125 3.535156 -7.492188 3.109375 -7.078125 C 2.679688 -6.660156 2.421875 -5.992188 2.328125 -5.078125 Z M 7.15625 -5.078125 "/></g></g></g><g fill="#000000" fill-opacity="1"><g transform="translate(105.713783, 326.969861)"><g><path d="M 3.9375 0.171875 C 3.394531 0.171875 2.890625 0.0976562 2.421875 -0.046875 C 1.960938 -0.191406 1.570312 -0.390625 1.25 -0.640625 C 0.9375 -0.890625 0.71875 -1.171875 0.59375 -1.484375 L 1.34375 -2.265625 L 1.5 -2.265625 C 1.78125 -1.835938 2.117188 -1.515625 2.515625 -1.296875 C 2.910156 -1.085938 3.382812 -0.984375 3.9375 -0.984375 C 4.570312 -0.984375 5.050781 -1.101562 5.375 -1.34375 C 5.707031 -1.59375 5.875 -1.941406 5.875 -2.390625 C 5.875 -2.722656 5.773438 -3 5.578125 -3.21875 C 5.378906 -3.445312 5.054688 -3.613281 4.609375 -3.71875 L 3.15625 -4.078125 C 2.375 -4.265625 1.804688 -4.5625 1.453125 -4.96875 C 1.097656 -5.375 0.921875 -5.878906 0.921875 -6.484375 C 0.921875 -6.953125 1.039062 -7.359375 1.28125 -7.703125 C 1.519531 -8.046875 1.863281 -8.3125 2.3125 -8.5 C 2.757812 -8.6875 3.296875 -8.78125 3.921875 -8.78125 C 4.710938 -8.78125 5.332031 -8.671875 5.78125 -8.453125 C 6.238281 -8.234375 6.597656 -7.925781 6.859375 -7.53125 L 6.140625 -6.828125 L 5.984375 -6.828125 C 5.703125 -7.140625 5.398438 -7.363281 5.078125 -7.5 C 4.753906 -7.644531 4.367188 -7.71875 3.921875 -7.71875 C 3.347656 -7.71875 2.910156 -7.613281 2.609375 -7.40625 C 2.304688 -7.207031 2.15625 -6.914062 2.15625 -6.53125 C 2.15625 -6.1875 2.257812 -5.90625 2.46875 -5.6875 C 2.6875 -5.476562 3.0625 -5.304688 3.59375 -5.171875 L 5.03125 -4.828125 C 5.78125 -4.648438 6.320312 -4.351562 6.65625 -3.9375 C 6.988281 -3.53125 7.15625 -3.019531 7.15625 -2.40625 C 7.15625 -1.894531 7.035156 -1.445312 6.796875 -1.0625 C 6.554688 -0.675781 6.191406 -0.375 5.703125 -0.15625 C 5.222656 0.0625 4.632812 0.171875 3.9375 0.171875 Z M 3.9375 0.171875 "/></g></g></g><g fill="#000000" fill-opacity="1"><g transform="translate(113.680587, 326.969861)"><g><path d="M 3.9375 0.171875 C 3.394531 0.171875 2.890625 0.0976562 2.421875 -0.046875 C 1.960938 -0.191406 1.570312 -0.390625 1.25 -0.640625 C 0.9375 -0.890625 0.71875 -1.171875 0.59375 -1.484375 L 1.34375 -2.265625 L 1.5 -2.265625 C 1.78125 -1.835938 2.117188 -1.515625 2.515625 -1.296875 C 2.910156 -1.085938 3.382812 -0.984375 3.9375 -0.984375 C 4.570312 -0.984375 5.050781 -1.101562 5.375 -1.34375 C 5.707031 -1.59375 5.875 -1.941406 5.875 -2.390625 C 5.875 -2.722656 5.773438 -3 5.578125 -3.21875 C 5.378906 -3.445312 5.054688 -3.613281 4.609375 -3.71875 L 3.15625 -4.078125 C 2.375 -4.265625 1.804688 -4.5625 1.453125 -4.96875 C 1.097656 -5.375 0.921875 -5.878906 0.921875 -6.484375 C 0.921875 -6.953125 1.039062 -7.359375 1.28125 -7.703125 C 1.519531 -8.046875 1.863281 -8.3125 2.3125 -8.5 C 2.757812 -8.6875 3.296875 -8.78125 3.921875 -8.78125 C 4.710938 -8.78125 5.332031 -8.671875 5.78125 -8.453125 C 6.238281 -8.234375 6.597656 -7.925781 6.859375 -7.53125 L 6.140625 -6.828125 L 5.984375 -6.828125 C 5.703125 -7.140625 5.398438 -7.363281 5.078125 -7.5 C 4.753906 -7.644531 4.367188 -7.71875 3.921875 -7.71875 C 3.347656 -7.71875 2.910156 -7.613281 2.609375 -7.40625 C 2.304688 -7.207031 2.15625 -6.914062 2.15625 -6.53125 C 2.15625 -6.1875 2.257812 -5.90625 2.46875 -5.6875 C 2.6875 -5.476562 3.0625 -5.304688 3.59375 -5.171875 L 5.03125 -4.828125 C 5.78125 -4.648438 6.320312 -4.351562 6.65625 -3.9375 C 6.988281 -3.53125 7.15625 -3.019531 7.15625 -2.40625 C 7.15625 -1.894531 7.035156 -1.445312 6.796875 -1.0625 C 6.554688 -0.675781 6.191406 -0.375 5.703125 -0.15625 C 5.222656 0.0625 4.632812 0.171875 3.9375 0.171875 Z M 3.9375 0.171875 "/></g></g></g><g fill="#000000" fill-opacity="1"><g transform="translate(121.647391, 326.969861)"><g/></g></g><g fill="#000000" fill-opacity="1"><g transform="translate(125.568308, 326.969861)"><g><path d="M 1.5 0 L 1.5 -8.625 L 2.71875 -8.625 L 2.71875 -7.265625 L 2.875 -7.234375 C 3.28125 -8.210938 4.035156 -8.703125 5.140625 -8.703125 C 5.734375 -8.703125 6.175781 -8.59375 6.46875 -8.375 L 6.140625 -7.296875 L 5.984375 -7.265625 C 5.660156 -7.429688 5.304688 -7.515625 4.921875 -7.515625 C 4.234375 -7.515625 3.703125 -7.253906 3.328125 -6.734375 C 2.960938 -6.222656 2.78125 -5.390625 2.78125 -4.234375 L 2.78125 0 Z M 1.5 0 "/></g></g></g><g fill="#000000" fill-opacity="1"><g transform="translate(132.222933, 326.969861)"><g><path d="M 2.140625 -10.28125 C 1.867188 -10.28125 1.648438 -10.363281 1.484375 -10.53125 C 1.316406 -10.707031 1.234375 -10.925781 1.234375 -11.1875 C 1.234375 -11.445312 1.316406 -11.660156 1.484375 -11.828125 C 1.648438 -11.992188 1.867188 -12.078125 2.140625 -12.078125 C 2.410156 -12.078125 2.628906 -11.992188 2.796875 -11.828125 C 2.972656 -11.660156 3.0625 -11.445312 3.0625 -11.1875 C 3.0625 -10.925781 2.972656 -10.707031 2.796875 -10.53125 C 2.628906 -10.363281 2.410156 -10.28125 2.140625 -10.28125 Z M 1.5 0 L 1.5 -8.625 L 2.78125 -8.625 L 2.78125 0 Z M 1.5 0 "/></g></g></g><g fill="#000000" fill-opacity="1"><g transform="translate(136.495332, 326.969861)"><g><path d="M 3.9375 0.171875 C 3.394531 0.171875 2.890625 0.0976562 2.421875 -0.046875 C 1.960938 -0.191406 1.570312 -0.390625 1.25 -0.640625 C 0.9375 -0.890625 0.71875 -1.171875 0.59375 -1.484375 L 1.34375 -2.265625 L 1.5 -2.265625 C 1.78125 -1.835938 2.117188 -1.515625 2.515625 -1.296875 C 2.910156 -1.085938 3.382812 -0.984375 3.9375 -0.984375 C 4.570312 -0.984375 5.050781 -1.101562 5.375 -1.34375 C 5.707031 -1.59375 5.875 -1.941406 5.875 -2.390625 C 5.875 -2.722656 5.773438 -3 5.578125 -3.21875 C 5.378906 -3.445312 5.054688 -3.613281 4.609375 -3.71875 L 3.15625 -4.078125 C 2.375 -4.265625 1.804688 -4.5625 1.453125 -4.96875 C 1.097656 -5.375 0.921875 -5.878906 0.921875 -6.484375 C 0.921875 -6.953125 1.039062 -7.359375 1.28125 -7.703125 C 1.519531 -8.046875 1.863281 -8.3125 2.3125 -8.5 C 2.757812 -8.6875 3.296875 -8.78125 3.921875 -8.78125 C 4.710938 -8.78125 5.332031 -8.671875 5.78125 -8.453125 C 6.238281 -8.234375 6.597656 -7.925781 6.859375 -7.53125 L 6.140625 -6.828125 L 5.984375 -6.828125 C 5.703125 -7.140625 5.398438 -7.363281 5.078125 -7.5 C 4.753906 -7.644531 4.367188 -7.71875 3.921875 -7.71875 C 3.347656 -7.71875 2.910156 -7.613281 2.609375 -7.40625 C 2.304688 -7.207031 2.15625 -6.914062 2.15625 -6.53125 C 2.15625 -6.1875 2.257812 -5.90625 2.46875 -5.6875 C 2.6875 -5.476562 3.0625 -5.304688 3.59375 -5.171875 L 5.03125 -4.828125 C 5.78125 -4.648438 6.320312 -4.351562 6.65625 -3.9375 C 6.988281 -3.53125 7.15625 -3.019531 7.15625 -2.40625 C 7.15625 -1.894531 7.035156 -1.445312 6.796875 -1.0625 C 6.554688 -0.675781 6.191406 -0.375 5.703125 -0.15625 C 5.222656 0.0625 4.632812 0.171875 3.9375 0.171875 Z M 3.9375 0.171875 "/></g></g></g><g fill="#000000" fill-opacity="1"><g transform="translate(144.462136, 326.969861)"><g><path d="M 1.5 0 L 1.5 -12.078125 L 2.78125 -12.078125 L 2.78125 -5.03125 L 2.984375 -5.03125 L 6.1875 -8.625 L 7.53125 -8.625 L 7.53125 -8.4375 L 4.109375 -4.578125 L 7.859375 -0.203125 L 7.859375 0 L 6.4375 0 L 2.984375 -3.984375 L 2.78125 -3.984375 L 2.78125 0 Z M 1.5 0 "/></g></g></g><g fill="#000000" fill-opacity="1"><g transform="translate(152.475804, 326.969861)"><g/></g></g><g fill="#000000" fill-opacity="1"><g transform="translate(156.396721, 326.969861)"><g><path d="M 1.5 0 L 1.5 -12.078125 L 2.78125 -12.078125 L 2.78125 -7.390625 L 2.9375 -7.359375 C 3.550781 -8.304688 4.441406 -8.78125 5.609375 -8.78125 C 6.640625 -8.78125 7.390625 -8.515625 7.859375 -7.984375 C 8.328125 -7.460938 8.5625 -6.648438 8.5625 -5.546875 L 8.5625 0 L 7.28125 0 L 7.28125 -5.515625 C 7.28125 -6.035156 7.210938 -6.453125 7.078125 -6.765625 C 6.953125 -7.085938 6.75 -7.316406 6.46875 -7.453125 C 6.1875 -7.597656 5.820312 -7.671875 5.375 -7.671875 C 4.59375 -7.671875 3.960938 -7.414062 3.484375 -6.90625 C 3.015625 -6.40625 2.78125 -5.578125 2.78125 -4.421875 L 2.78125 0 Z M 1.5 0 "/></g></g></g><g fill="#000000" fill-opacity="1"><g transform="translate(166.316173, 326.969861)"><g><path d="M 2.140625 -10.28125 C 1.867188 -10.28125 1.648438 -10.363281 1.484375 -10.53125 C 1.316406 -10.707031 1.234375 -10.925781 1.234375 -11.1875 C 1.234375 -11.445312 1.316406 -11.660156 1.484375 -11.828125 C 1.648438 -11.992188 1.867188 -12.078125 2.140625 -12.078125 C 2.410156 -12.078125 2.628906 -11.992188 2.796875 -11.828125 C 2.972656 -11.660156 3.0625 -11.445312 3.0625 -11.1875 C 3.0625 -10.925781 2.972656 -10.707031 2.796875 -10.53125 C 2.628906 -10.363281 2.410156 -10.28125 2.140625 -10.28125 Z M 1.5 0 L 1.5 -8.625 L 2.78125 -8.625 L 2.78125 0 Z M 1.5 0 "/></g></g></g><g fill="#000000" fill-opacity="1"><g transform="translate(170.588573, 326.969861)"><g><path d="M 4.4375 3.65625 C 3.082031 3.65625 2.09375 3.425781 1.46875 2.96875 C 0.84375 2.519531 0.53125 1.921875 0.53125 1.171875 C 0.53125 0.691406 0.675781 0.304688 0.96875 0.015625 C 1.257812 -0.273438 1.679688 -0.484375 2.234375 -0.609375 L 2.234375 -0.765625 C 1.972656 -0.921875 1.773438 -1.097656 1.640625 -1.296875 C 1.503906 -1.503906 1.4375 -1.75 1.4375 -2.03125 C 1.4375 -2.363281 1.539062 -2.632812 1.75 -2.84375 C 1.96875 -3.050781 2.285156 -3.207031 2.703125 -3.3125 L 2.703125 -3.484375 C 1.765625 -3.972656 1.296875 -4.773438 1.296875 -5.890625 C 1.296875 -6.453125 1.421875 -6.953125 1.671875 -7.390625 C 1.929688 -7.828125 2.296875 -8.164062 2.765625 -8.40625 C 3.242188 -8.65625 3.796875 -8.78125 4.421875 -8.78125 C 5.148438 -8.78125 5.753906 -8.625 6.234375 -8.3125 C 6.421875 -8.507812 6.554688 -8.722656 6.640625 -8.953125 C 6.734375 -9.191406 6.796875 -9.457031 6.828125 -9.75 L 6.984375 -9.84375 L 8.03125 -9.59375 C 7.976562 -9.15625 7.847656 -8.785156 7.640625 -8.484375 C 7.429688 -8.179688 7.132812 -7.929688 6.75 -7.734375 L 6.75 -7.578125 C 7.019531 -7.359375 7.222656 -7.097656 7.359375 -6.796875 C 7.492188 -6.503906 7.5625 -6.164062 7.5625 -5.78125 C 7.5625 -5.238281 7.429688 -4.75 7.171875 -4.3125 C 6.910156 -3.882812 6.539062 -3.546875 6.0625 -3.296875 C 5.59375 -3.046875 5.046875 -2.921875 4.421875 -2.921875 C 4.347656 -2.921875 4.21875 -2.925781 4.03125 -2.9375 C 3.820312 -2.945312 3.671875 -2.953125 3.578125 -2.953125 C 3.304688 -2.953125 3.085938 -2.878906 2.921875 -2.734375 C 2.765625 -2.597656 2.6875 -2.421875 2.6875 -2.203125 C 2.6875 -1.929688 2.769531 -1.734375 2.9375 -1.609375 C 3.113281 -1.484375 3.40625 -1.410156 3.8125 -1.390625 L 5.84375 -1.328125 C 6.726562 -1.296875 7.378906 -1.085938 7.796875 -0.703125 C 8.222656 -0.328125 8.4375 0.207031 8.4375 0.90625 C 8.4375 1.414062 8.296875 1.878906 8.015625 2.296875 C 7.742188 2.710938 7.304688 3.039062 6.703125 3.28125 C 6.109375 3.53125 5.351562 3.65625 4.4375 3.65625 Z M 4.421875 -4.015625 C 5.035156 -4.015625 5.507812 -4.171875 5.84375 -4.484375 C 6.175781 -4.804688 6.34375 -5.253906 6.34375 -5.828125 C 6.34375 -6.421875 6.175781 -6.878906 5.84375 -7.203125 C 5.507812 -7.523438 5.035156 -7.6875 4.421875 -7.6875 C 3.804688 -7.6875 3.335938 -7.523438 3.015625 -7.203125 C 2.691406 -6.890625 2.53125 -6.429688 2.53125 -5.828125 C 2.53125 -5.253906 2.691406 -4.804688 3.015625 -4.484375 C 3.335938 -4.171875 3.804688 -4.015625 4.421875 -4.015625 Z M 4.4375 2.5625 C 5.070312 2.5625 5.59375 2.488281 6 2.34375 C 6.40625 2.207031 6.695312 2.023438 6.875 1.796875 C 7.050781 1.566406 7.140625 1.304688 7.140625 1.015625 C 7.140625 0.765625 7.085938 0.5625 6.984375 0.40625 C 6.890625 0.25 6.734375 0.128906 6.515625 0.046875 C 6.304688 -0.0351562 6.019531 -0.0859375 5.65625 -0.109375 L 3.71875 -0.203125 L 3.453125 -0.203125 C 2.367188 -0.179688 1.828125 0.238281 1.828125 1.0625 C 1.828125 2.0625 2.695312 2.5625 4.4375 2.5625 Z M 4.4375 2.5625 "/></g></g></g><g fill="#000000" fill-opacity="1"><g transform="translate(179.414542, 326.969861)"><g><path d="M 1.5 0 L 1.5 -12.078125 L 2.78125 -12.078125 L 2.78125 -7.390625 L 2.9375 -7.359375 C 3.550781 -8.304688 4.441406 -8.78125 5.609375 -8.78125 C 6.640625 -8.78125 7.390625 -8.515625 7.859375 -7.984375 C 8.328125 -7.460938 8.5625 -6.648438 8.5625 -5.546875 L 8.5625 0 L 7.28125 0 L 7.28125 -5.515625 C 7.28125 -6.035156 7.210938 -6.453125 7.078125 -6.765625 C 6.953125 -7.085938 6.75 -7.316406 6.46875 -7.453125 C 6.1875 -7.597656 5.820312 -7.671875 5.375 -7.671875 C 4.59375 -7.671875 3.960938 -7.414062 3.484375 -6.90625 C 3.015625 -6.40625 2.78125 -5.578125 2.78125 -4.421875 L 2.78125 0 Z M 1.5 0 "/></g></g></g><g fill="#000000" fill-opacity="1"><g transform="translate(189.333994, 326.969861)"><g><path d="M 8.21875 -4.015625 L 2.296875 -4.015625 C 2.328125 -2.972656 2.578125 -2.207031 3.046875 -1.71875 C 3.515625 -1.226562 4.15625 -0.984375 4.96875 -0.984375 C 5.582031 -0.984375 6.078125 -1.09375 6.453125 -1.3125 C 6.828125 -1.53125 7.117188 -1.875 7.328125 -2.34375 L 7.5 -2.34375 L 8.328125 -1.84375 C 8.078125 -1.21875 7.675781 -0.722656 7.125 -0.359375 C 6.570312 -0.00390625 5.851562 0.171875 4.96875 0.171875 C 4.132812 0.171875 3.414062 0.00390625 2.8125 -0.328125 C 2.21875 -0.660156 1.757812 -1.160156 1.4375 -1.828125 C 1.113281 -2.492188 0.953125 -3.320312 0.953125 -4.3125 C 0.953125 -5.289062 1.117188 -6.113281 1.453125 -6.78125 C 1.796875 -7.457031 2.265625 -7.957031 2.859375 -8.28125 C 3.453125 -8.613281 4.128906 -8.78125 4.890625 -8.78125 C 5.992188 -8.78125 6.851562 -8.46875 7.46875 -7.84375 C 8.09375 -7.226562 8.40625 -6.304688 8.40625 -5.078125 C 8.40625 -4.597656 8.394531 -4.273438 8.375 -4.109375 Z M 7.15625 -5.078125 C 7.132812 -5.992188 6.929688 -6.660156 6.546875 -7.078125 C 6.160156 -7.492188 5.609375 -7.703125 4.890625 -7.703125 C 4.128906 -7.703125 3.535156 -7.492188 3.109375 -7.078125 C 2.679688 -6.660156 2.421875 -5.992188 2.328125 -5.078125 Z M 7.15625 -5.078125 "/></g></g></g><g fill="#000000" fill-opacity="1"><g transform="translate(198.51925, 326.969861)"><g><path d="M 1.5 0 L 1.5 -8.625 L 2.71875 -8.625 L 2.71875 -7.265625 L 2.875 -7.234375 C 3.28125 -8.210938 4.035156 -8.703125 5.140625 -8.703125 C 5.734375 -8.703125 6.175781 -8.59375 6.46875 -8.375 L 6.140625 -7.296875 L 5.984375 -7.265625 C 5.660156 -7.429688 5.304688 -7.515625 4.921875 -7.515625 C 4.234375 -7.515625 3.703125 -7.253906 3.328125 -6.734375 C 2.960938 -6.222656 2.78125 -5.390625 2.78125 -4.234375 L 2.78125 0 Z M 1.5 0 "/></g></g></g><g fill="#000000" fill-opacity="1"><g transform="translate(205.173875, 326.969861)"><g/></g></g><g fill="#000000" fill-opacity="1"><g transform="translate(209.094792, 326.969861)"><g><path d="M 1.5 0 L 1.5 -8.625 L 2.71875 -8.625 L 2.71875 -7.265625 L 2.875 -7.234375 C 3.28125 -8.210938 4.035156 -8.703125 5.140625 -8.703125 C 5.734375 -8.703125 6.175781 -8.59375 6.46875 -8.375 L 6.140625 -7.296875 L 5.984375 -7.265625 C 5.660156 -7.429688 5.304688 -7.515625 4.921875 -7.515625 C 4.234375 -7.515625 3.703125 -7.253906 3.328125 -6.734375 C 2.960938 -6.222656 2.78125 -5.390625 2.78125 -4.234375 L 2.78125 0 Z M 1.5 0 "/></g></g></g><g fill="#000000" fill-opacity="1"><g transform="translate(215.749416, 326.969861)"><g><path d="M 8.21875 -4.015625 L 2.296875 -4.015625 C 2.328125 -2.972656 2.578125 -2.207031 3.046875 -1.71875 C 3.515625 -1.226562 4.15625 -0.984375 4.96875 -0.984375 C 5.582031 -0.984375 6.078125 -1.09375 6.453125 -1.3125 C 6.828125 -1.53125 7.117188 -1.875 7.328125 -2.34375 L 7.5 -2.34375 L 8.328125 -1.84375 C 8.078125 -1.21875 7.675781 -0.722656 7.125 -0.359375 C 6.570312 -0.00390625 5.851562 0.171875 4.96875 0.171875 C 4.132812 0.171875 3.414062 0.00390625 2.8125 -0.328125 C 2.21875 -0.660156 1.757812 -1.160156 1.4375 -1.828125 C 1.113281 -2.492188 0.953125 -3.320312 0.953125 -4.3125 C 0.953125 -5.289062 1.117188 -6.113281 1.453125 -6.78125 C 1.796875 -7.457031 2.265625 -7.957031 2.859375 -8.28125 C 3.453125 -8.613281 4.128906 -8.78125 4.890625 -8.78125 C 5.992188 -8.78125 6.851562 -8.46875 7.46875 -7.84375 C 8.09375 -7.226562 8.40625 -6.304688 8.40625 -5.078125 C 8.40625 -4.597656 8.394531 -4.273438 8.375 -4.109375 Z M 7.15625 -5.078125 C 7.132812 -5.992188 6.929688 -6.660156 6.546875 -7.078125 C 6.160156 -7.492188 5.609375 -7.703125 4.890625 -7.703125 C 4.128906 -7.703125 3.535156 -7.492188 3.109375 -7.078125 C 2.679688 -6.660156 2.421875 -5.992188 2.328125 -5.078125 Z M 7.15625 -5.078125 "/></g></g></g><g fill="#000000" fill-opacity="1"><g transform="translate(224.934673, 326.969861)"><g><path d="M 4.28125 0 L 2.671875 0 L 0.5625 -8.625 L 1.8125 -8.625 L 3.453125 -1.484375 L 3.609375 -1.484375 L 5.625 -8.625 L 6.953125 -8.625 L 9.03125 -1.484375 L 9.1875 -1.484375 L 10.796875 -8.625 L 12.015625 -8.625 L 9.921875 0 L 8.3125 0 L 6.34375 -6.6875 L 6.171875 -6.6875 Z M 4.28125 0 "/></g></g></g><g fill="#000000" fill-opacity="1"><g transform="translate(237.494105, 326.969861)"><g><path d="M 3.5625 0.171875 C 2.707031 0.171875 2.039062 -0.0507812 1.5625 -0.5 C 1.09375 -0.945312 0.859375 -1.582031 0.859375 -2.40625 C 0.859375 -2.914062 0.960938 -3.34375 1.171875 -3.6875 C 1.378906 -4.039062 1.703125 -4.328125 2.140625 -4.546875 C 2.585938 -4.773438 3.171875 -4.945312 3.890625 -5.0625 C 4.515625 -5.164062 4.988281 -5.28125 5.3125 -5.40625 C 5.632812 -5.539062 5.851562 -5.6875 5.96875 -5.84375 C 6.082031 -6.007812 6.140625 -6.21875 6.140625 -6.46875 C 6.140625 -6.851562 6.003906 -7.148438 5.734375 -7.359375 C 5.460938 -7.566406 5.03125 -7.671875 4.4375 -7.671875 C 3.882812 -7.671875 3.40625 -7.5625 3 -7.34375 C 2.601562 -7.132812 2.238281 -6.816406 1.90625 -6.390625 L 1.75 -6.390625 L 1.125 -7.265625 C 1.488281 -7.734375 1.953125 -8.101562 2.515625 -8.375 C 3.078125 -8.644531 3.71875 -8.78125 4.4375 -8.78125 C 5.457031 -8.78125 6.207031 -8.554688 6.6875 -8.109375 C 7.164062 -7.671875 7.40625 -7.054688 7.40625 -6.265625 L 7.40625 -1.703125 C 7.40625 -1.222656 7.609375 -0.984375 8.015625 -0.984375 C 8.148438 -0.984375 8.28125 -1.003906 8.40625 -1.046875 L 8.515625 -1.015625 L 8.671875 -0.140625 C 8.578125 -0.078125 8.453125 -0.03125 8.296875 0 C 8.140625 0.0390625 7.984375 0.0625 7.828125 0.0625 C 7.347656 0.0625 6.988281 -0.0390625 6.75 -0.25 C 6.507812 -0.457031 6.351562 -0.765625 6.28125 -1.171875 L 6.125 -1.1875 C 5.875 -0.738281 5.539062 -0.398438 5.125 -0.171875 C 4.707031 0.0546875 4.1875 0.171875 3.5625 0.171875 Z M 3.84375 -0.859375 C 4.320312 -0.859375 4.734375 -0.96875 5.078125 -1.1875 C 5.429688 -1.40625 5.703125 -1.710938 5.890625 -2.109375 C 6.078125 -2.515625 6.171875 -2.984375 6.171875 -3.515625 L 6.171875 -4.609375 L 6.03125 -4.640625 C 5.832031 -4.503906 5.59375 -4.390625 5.3125 -4.296875 C 5.039062 -4.203125 4.660156 -4.117188 4.171875 -4.046875 C 3.671875 -3.984375 3.269531 -3.878906 2.96875 -3.734375 C 2.675781 -3.597656 2.46875 -3.421875 2.34375 -3.203125 C 2.21875 -2.984375 2.15625 -2.71875 2.15625 -2.40625 C 2.15625 -1.894531 2.300781 -1.507812 2.59375 -1.25 C 2.894531 -0.988281 3.3125 -0.859375 3.84375 -0.859375 Z M 3.84375 -0.859375 "/></g></g></g><g fill="#000000" fill-opacity="1"><g transform="translate(246.405996, 326.969861)"><g><path d="M 1.5 0 L 1.5 -8.625 L 2.71875 -8.625 L 2.71875 -7.265625 L 2.875 -7.234375 C 3.28125 -8.210938 4.035156 -8.703125 5.140625 -8.703125 C 5.734375 -8.703125 6.175781 -8.59375 6.46875 -8.375 L 6.140625 -7.296875 L 5.984375 -7.265625 C 5.660156 -7.429688 5.304688 -7.515625 4.921875 -7.515625 C 4.234375 -7.515625 3.703125 -7.253906 3.328125 -6.734375 C 2.960938 -6.222656 2.78125 -5.390625 2.78125 -4.234375 L 2.78125 0 Z M 1.5 0 "/></g></g></g><g fill="#000000" fill-opacity="1"><g transform="translate(253.060621, 326.969861)"><g><path d="M 4.46875 0.171875 C 3.78125 0.171875 3.171875 0.00390625 2.640625 -0.328125 C 2.109375 -0.660156 1.691406 -1.160156 1.390625 -1.828125 C 1.097656 -2.492188 0.953125 -3.320312 0.953125 -4.3125 C 0.953125 -5.289062 1.109375 -6.113281 1.421875 -6.78125 C 1.734375 -7.457031 2.160156 -7.957031 2.703125 -8.28125 C 3.253906 -8.613281 3.894531 -8.78125 4.625 -8.78125 C 5.195312 -8.78125 5.710938 -8.671875 6.171875 -8.453125 C 6.628906 -8.242188 7.019531 -7.890625 7.34375 -7.390625 L 7.515625 -7.421875 L 7.515625 -12.078125 L 8.78125 -12.078125 L 8.78125 0 L 7.515625 0 L 7.515625 -1.265625 L 7.34375 -1.296875 C 7.0625 -0.867188 6.679688 -0.515625 6.203125 -0.234375 C 5.722656 0.0351562 5.144531 0.171875 4.46875 0.171875 Z M 4.875 -0.984375 C 5.675781 -0.984375 6.316406 -1.253906 6.796875 -1.796875 C 7.273438 -2.347656 7.515625 -3.1875 7.515625 -4.3125 C 7.515625 -5.4375 7.273438 -6.269531 6.796875 -6.8125 C 6.316406 -7.363281 5.675781 -7.640625 4.875 -7.640625 C 4.039062 -7.640625 3.398438 -7.367188 2.953125 -6.828125 C 2.503906 -6.296875 2.28125 -5.457031 2.28125 -4.3125 C 2.28125 -2.09375 3.144531 -0.984375 4.875 -0.984375 Z M 4.875 -0.984375 "/></g></g></g></svg>