<svg width="32" height="33" viewBox="0 0 32 33" fill="none" xmlns="http://www.w3.org/2000/svg">
<g clip-path="url(#clip0_2586_1046)">
<path fill-rule="evenodd" clip-rule="evenodd" d="M0.770108 4.57788C0.0195312 6.0228 0.0195312 7.9211 0.0195312 11.7177V22.251C0.0195312 26.0476 0.0195312 27.9459 0.770108 29.3909C1.40261 30.6085 2.39541 31.6013 3.61304 32.2338C5.05796 32.9844 6.95626 32.9844 10.7529 32.9844H21.2862C25.0828 32.9844 26.9811 32.9844 28.426 32.2338C29.6437 31.6013 30.6365 30.6085 31.269 29.3909C32.0195 27.9459 32.0195 26.0476 32.0195 22.251V11.7177C32.0195 7.9211 32.0195 6.0228 31.269 4.57788C30.6365 3.36026 29.6437 2.36746 28.426 1.73495C26.9811 0.984375 25.0828 0.984375 21.2862 0.984375H10.7529C6.95626 0.984375 5.05796 0.984375 3.61304 1.73495C2.39541 2.36746 1.40261 3.36026 0.770108 4.57788ZM11.4653 6.05083C12.6387 5.99744 13.0136 5.98438 16.001 5.98438H15.9976C18.986 5.98438 19.3595 5.99744 20.5328 6.05083C21.7039 6.10446 22.5037 6.28985 23.205 6.56188C23.9291 6.8426 24.541 7.21844 25.1529 7.83031C25.7648 8.44173 26.1406 9.05544 26.4225 9.77892C26.6929 10.4783 26.8785 11.2777 26.9335 12.4487C26.9862 13.622 27 13.997 27 16.9844C27 19.9718 26.9862 20.3458 26.9335 21.5191C26.8785 22.6897 26.6929 23.4893 26.4225 24.1889C26.1406 24.9122 25.7648 25.5259 25.1529 26.1373C24.5417 26.7492 23.9289 27.1259 23.2056 27.4069C22.5058 27.6789 21.7055 27.8643 20.5345 27.9179C19.3611 27.9713 18.9873 27.9844 15.9997 27.9844C13.0124 27.9844 12.6377 27.9713 11.4644 27.9179C10.2936 27.8643 9.49401 27.6789 8.79412 27.4069C8.07109 27.1259 7.45738 26.7492 6.84619 26.1373C6.23453 25.5259 5.8587 24.9122 5.57751 24.1887C5.30571 23.4893 5.12031 22.6899 5.06646 21.5189C5.01329 20.3456 5 19.9718 5 16.9844C5 13.997 5.01375 13.6218 5.06623 12.4485C5.11894 11.2779 5.30457 10.4783 5.57728 9.77869C5.85915 9.05544 6.23499 8.44173 6.84687 7.83031C7.4583 7.21867 8.07201 6.84283 8.7955 6.56188C9.49492 6.28985 10.2943 6.10446 11.4653 6.05083ZM15.6344 7.96656C15.412 7.96646 15.2058 7.96637 15.0142 7.96667V7.96392C12.9641 7.96621 12.5708 7.97996 11.5561 8.02579C10.4836 8.07506 9.90124 8.25381 9.51348 8.40506C9.00015 8.6049 8.63348 8.84323 8.24847 9.22823C7.86347 9.61323 7.62467 9.9799 7.4253 10.4932C7.27473 10.881 7.09552 11.4631 7.04648 12.5356C6.99377 13.6951 6.98323 14.0416 6.98323 16.9791C6.98323 19.9166 6.99377 20.2649 7.04648 21.4245C7.09529 22.497 7.27473 23.0791 7.4253 23.4664C7.62513 23.9799 7.86347 24.3457 8.24847 24.7307C8.63348 25.1157 9.00015 25.354 9.51348 25.5534C9.90147 25.7039 10.4836 25.8831 11.5561 25.9326C12.7157 25.9854 13.0638 25.9968 16.001 25.9968C18.9381 25.9968 19.2864 25.9854 20.446 25.9326C21.5185 25.8836 22.1011 25.7049 22.4883 25.5536C23.0019 25.3542 23.3674 25.1159 23.7524 24.7309C24.1374 24.3461 24.3762 23.9806 24.5756 23.4673C24.7262 23.08 24.9054 22.4979 24.9544 21.4254C25.0071 20.2658 25.0186 19.9175 25.0186 16.9819C25.0186 14.0462 25.0071 13.6979 24.9544 12.5383C24.9056 11.4658 24.7262 10.8837 24.5756 10.4964C24.3758 9.9831 24.1374 9.61644 23.7524 9.23144C23.3677 8.84644 23.0017 8.6081 22.4883 8.40873C22.1006 8.25817 21.5185 8.07896 20.446 8.02992C19.2862 7.97721 18.9381 7.96667 16.001 7.96667C15.8741 7.96667 15.752 7.96661 15.6344 7.96656ZM20.5528 11.1127C20.5528 10.3837 21.144 9.79313 21.8728 9.79313V9.79267C22.6016 9.79267 23.1928 10.3839 23.1928 11.1127C23.1928 11.8414 22.6016 12.4327 21.8728 12.4327C21.144 12.4327 20.5528 11.8414 20.5528 11.1127ZM10.352 16.9844C10.352 13.8648 12.8812 11.3355 16.0008 11.3354C19.1205 11.3354 21.6491 13.8647 21.6491 16.9844C21.6491 20.104 19.1207 22.6322 16.001 22.6322C12.8814 22.6322 10.352 20.104 10.352 16.9844ZM19.6677 16.9844C19.6677 14.9592 18.026 13.3177 16.001 13.3177C13.9759 13.3177 12.3343 14.9592 12.3343 16.9844C12.3343 19.0093 13.9759 20.651 16.001 20.651C18.026 20.651 19.6677 19.0093 19.6677 16.9844Z" fill="url(#paint0_radial_2586_1046)"/>
<path fill-rule="evenodd" clip-rule="evenodd" d="M0.770108 4.57788C0.0195312 6.0228 0.0195312 7.9211 0.0195312 11.7177V22.251C0.0195312 26.0476 0.0195312 27.9459 0.770108 29.3909C1.40261 30.6085 2.39541 31.6013 3.61304 32.2338C5.05796 32.9844 6.95626 32.9844 10.7529 32.9844H21.2862C25.0828 32.9844 26.9811 32.9844 28.426 32.2338C29.6437 31.6013 30.6365 30.6085 31.269 29.3909C32.0195 27.9459 32.0195 26.0476 32.0195 22.251V11.7177C32.0195 7.9211 32.0195 6.0228 31.269 4.57788C30.6365 3.36026 29.6437 2.36746 28.426 1.73495C26.9811 0.984375 25.0828 0.984375 21.2862 0.984375H10.7529C6.95626 0.984375 5.05796 0.984375 3.61304 1.73495C2.39541 2.36746 1.40261 3.36026 0.770108 4.57788ZM11.4653 6.05083C12.6387 5.99744 13.0136 5.98438 16.001 5.98438H15.9976C18.986 5.98438 19.3595 5.99744 20.5328 6.05083C21.7039 6.10446 22.5037 6.28985 23.205 6.56188C23.9291 6.8426 24.541 7.21844 25.1529 7.83031C25.7648 8.44173 26.1406 9.05544 26.4225 9.77892C26.6929 10.4783 26.8785 11.2777 26.9335 12.4487C26.9862 13.622 27 13.997 27 16.9844C27 19.9718 26.9862 20.3458 26.9335 21.5191C26.8785 22.6897 26.6929 23.4893 26.4225 24.1889C26.1406 24.9122 25.7648 25.5259 25.1529 26.1373C24.5417 26.7492 23.9289 27.1259 23.2056 27.4069C22.5058 27.6789 21.7055 27.8643 20.5345 27.9179C19.3611 27.9713 18.9873 27.9844 15.9997 27.9844C13.0124 27.9844 12.6377 27.9713 11.4644 27.9179C10.2936 27.8643 9.49401 27.6789 8.79412 27.4069C8.07109 27.1259 7.45738 26.7492 6.84619 26.1373C6.23453 25.5259 5.8587 24.9122 5.57751 24.1887C5.30571 23.4893 5.12031 22.6899 5.06646 21.5189C5.01329 20.3456 5 19.9718 5 16.9844C5 13.997 5.01375 13.6218 5.06623 12.4485C5.11894 11.2779 5.30457 10.4783 5.57728 9.77869C5.85915 9.05544 6.23499 8.44173 6.84687 7.83031C7.4583 7.21867 8.07201 6.84283 8.7955 6.56188C9.49492 6.28985 10.2943 6.10446 11.4653 6.05083ZM15.6344 7.96656C15.412 7.96646 15.2058 7.96637 15.0142 7.96667V7.96392C12.9641 7.96621 12.5708 7.97996 11.5561 8.02579C10.4836 8.07506 9.90124 8.25381 9.51348 8.40506C9.00015 8.6049 8.63348 8.84323 8.24847 9.22823C7.86347 9.61323 7.62467 9.9799 7.4253 10.4932C7.27473 10.881 7.09552 11.4631 7.04648 12.5356C6.99377 13.6951 6.98323 14.0416 6.98323 16.9791C6.98323 19.9166 6.99377 20.2649 7.04648 21.4245C7.09529 22.497 7.27473 23.0791 7.4253 23.4664C7.62513 23.9799 7.86347 24.3457 8.24847 24.7307C8.63348 25.1157 9.00015 25.354 9.51348 25.5534C9.90147 25.7039 10.4836 25.8831 11.5561 25.9326C12.7157 25.9854 13.0638 25.9968 16.001 25.9968C18.9381 25.9968 19.2864 25.9854 20.446 25.9326C21.5185 25.8836 22.1011 25.7049 22.4883 25.5536C23.0019 25.3542 23.3674 25.1159 23.7524 24.7309C24.1374 24.3461 24.3762 23.9806 24.5756 23.4673C24.7262 23.08 24.9054 22.4979 24.9544 21.4254C25.0071 20.2658 25.0186 19.9175 25.0186 16.9819C25.0186 14.0462 25.0071 13.6979 24.9544 12.5383C24.9056 11.4658 24.7262 10.8837 24.5756 10.4964C24.3758 9.9831 24.1374 9.61644 23.7524 9.23144C23.3677 8.84644 23.0017 8.6081 22.4883 8.40873C22.1006 8.25817 21.5185 8.07896 20.446 8.02992C19.2862 7.97721 18.9381 7.96667 16.001 7.96667C15.8741 7.96667 15.752 7.96661 15.6344 7.96656ZM20.5528 11.1127C20.5528 10.3837 21.144 9.79313 21.8728 9.79313V9.79267C22.6016 9.79267 23.1928 10.3839 23.1928 11.1127C23.1928 11.8414 22.6016 12.4327 21.8728 12.4327C21.144 12.4327 20.5528 11.8414 20.5528 11.1127ZM10.352 16.9844C10.352 13.8648 12.8812 11.3355 16.0008 11.3354C19.1205 11.3354 21.6491 13.8647 21.6491 16.9844C21.6491 20.104 19.1207 22.6322 16.001 22.6322C12.8814 22.6322 10.352 20.104 10.352 16.9844ZM19.6677 16.9844C19.6677 14.9592 18.026 13.3177 16.001 13.3177C13.9759 13.3177 12.3343 14.9592 12.3343 16.9844C12.3343 19.0093 13.9759 20.651 16.001 20.651C18.026 20.651 19.6677 19.0093 19.6677 16.9844Z" fill="white"/>
</g>
<defs>
<radialGradient id="paint0_radial_2586_1046" cx="0" cy="0" r="1" gradientUnits="userSpaceOnUse" gradientTransform="translate(8.51957 35.449) rotate(-90) scale(31.7144 29.4969)">
<stop stop-color="#FFDD55"/>
<stop offset="0.1" stop-color="#FFDD55"/>
<stop offset="0.5" stop-color="#FF543E"/>
<stop offset="1" stop-color="#C837AB"/>
</radialGradient>
<clipPath id="clip0_2586_1046">
<rect width="32" height="32" fill="white" transform="translate(0 0.984375)"/>
</clipPath>
</defs>
</svg>
