<svg width="32" height="33" viewBox="0 0 32 33" fill="none" xmlns="http://www.w3.org/2000/svg">
<path fill-rule="evenodd" clip-rule="evenodd" d="M0.750577 4.57788C0 6.0228 0 7.9211 0 11.7177V22.251C0 26.0476 0 27.9459 0.750577 29.3909C1.38308 30.6085 2.37588 31.6013 3.5935 32.2338C5.03843 32.9844 6.93673 32.9844 10.7333 32.9844H21.2667C25.0633 32.9844 26.9616 32.9844 28.4065 32.2338C29.6241 31.6013 30.6169 30.6085 31.2494 29.3909C32 27.9459 32 26.0476 32 22.251V11.7177C32 7.9211 32 6.0228 31.2494 4.57788C30.6169 3.36026 29.6241 2.36746 28.4065 1.73495C26.9616 0.984375 25.0633 0.984375 21.2667 0.984375H10.7333C6.93673 0.984375 5.03843 0.984375 3.5935 1.73495C2.37588 2.36746 1.38308 3.36026 0.750577 4.57788ZM9.18384 12.3576C10.3899 12.3576 11.3677 11.3786 11.3677 10.171C11.3677 8.96336 10.3899 7.98438 9.18384 7.98438C7.97774 7.98438 7 8.96336 7 10.171C7 11.3786 7.97774 12.3576 9.18384 12.3576ZM13.3677 13.9736H16.987V15.6338C16.987 15.6338 17.9692 13.6669 20.6415 13.6669C23.0253 13.6669 25 14.8428 25 18.4268V25.9844H21.2494V19.3425C21.2494 17.2283 20.1221 16.9958 19.2631 16.9958C17.4803 16.9958 17.1751 18.5355 17.1751 19.6183V25.9844H13.3677V13.9736ZM11.0876 13.9736H7.28013V25.9844H11.0876V13.9736Z" fill="white"/>
</svg>
