<svg width="32" height="33" viewBox="0 0 32 33" fill="none" xmlns="http://www.w3.org/2000/svg">
<g clip-path="url(#clip0_2586_1014)">
<path fill-rule="evenodd" clip-rule="evenodd" d="M0.750577 4.57788C0 6.0228 0 7.9211 0 11.7177V22.251C0 26.0476 0 27.9459 0.750577 29.3909C1.38308 30.6085 2.37588 31.6013 3.5935 32.2338C5.03843 32.9844 6.93673 32.9844 10.7333 32.9844H21.2667C25.0633 32.9844 26.9616 32.9844 28.4065 32.2338C29.6241 31.6013 30.6169 30.6085 31.2494 29.3909C32 27.9459 32 26.0476 32 22.251V11.7177C32 7.9211 32 6.0228 31.2494 4.57788C30.6169 3.36026 29.6241 2.36746 28.4065 1.73495C26.9616 0.984375 25.0633 0.984375 21.2667 0.984375H10.7333C6.93673 0.984375 5.03843 0.984375 3.5935 1.73495C2.37588 2.36746 1.38308 3.36026 0.750577 4.57788ZM11.2045 23.9844C14.6314 23.9844 17.4093 21.0741 17.4093 17.4843C17.4093 13.8944 14.6312 10.9844 11.2045 10.9844C7.77792 10.9844 5 13.8936 5 17.4843C5 21.075 7.77771 23.9844 11.2045 23.9844ZM21.1136 23.6029C22.8269 23.6029 24.216 20.8637 24.216 17.4843C24.216 14.1058 22.8269 11.3656 21.1136 11.3656C19.4003 11.3656 18.0112 14.1058 18.0112 17.4843C18.0112 20.8628 19.4003 23.6029 21.1136 23.6029ZM25.9088 22.9664C26.5114 22.9664 27 20.512 27 17.4843C27 14.4567 26.5118 12.0022 25.9091 12.0022C25.3063 12.0022 24.8177 14.4574 24.8177 17.4843C24.8177 20.5112 25.3063 22.9664 25.9088 22.9664Z" fill="white"/>
</g>
<defs>
<clipPath id="clip0_2586_1014">
<rect width="32" height="32" fill="white" transform="translate(0 0.984375)"/>
</clipPath>
</defs>
</svg>
