<svg width="32" height="33" viewBox="0 0 32 33" fill="none" xmlns="http://www.w3.org/2000/svg">
<g clip-path="url(#clip0_2586_1042)">
<path fill-rule="evenodd" clip-rule="evenodd" d="M0.750577 4.57788C0 6.0228 0 7.9211 0 11.7177V22.251C0 26.0476 0 27.9459 0.750577 29.3909C1.38308 30.6085 2.37588 31.6013 3.5935 32.2338C5.03843 32.9844 6.93673 32.9844 10.7333 32.9844H21.2667C25.0633 32.9844 26.9616 32.9844 28.4065 32.2338C29.6241 31.6013 30.6169 30.6085 31.2494 29.3909C32 27.9459 32 26.0476 32 22.251V11.7177C32 7.9211 32 6.0228 31.2494 4.57788C30.6169 3.36026 29.6241 2.36746 28.4065 1.73495C26.9616 0.984375 25.0633 0.984375 21.2667 0.984375H10.7333C6.93673 0.984375 5.03843 0.984375 3.5935 1.73495C2.37588 2.36746 1.38308 3.36026 0.750577 4.57788ZM9.97342 7.78317C12.1955 6.32745 14.8692 5.725 17.5008 6.08705L17.503 6.08815C20.1342 6.45121 22.5451 7.75414 24.2907 9.75633C26.0363 11.7585 26.9986 14.3248 27 16.9812C27.0022 18.4261 26.7193 19.8573 26.1677 21.1927C25.6161 22.5281 24.8065 23.7416 23.7853 24.7637C22.7641 25.7857 21.5513 26.5963 20.2165 27.1489C18.8816 27.7016 17.4509 27.9854 16.0061 27.9843C14.9459 27.9887 13.8912 27.8347 12.876 27.5267C13.3632 26.8049 13.7408 26.015 13.9968 25.1826C14.1221 24.7009 14.7578 22.1533 14.7578 22.1533C15.0562 22.5903 15.46 22.9449 15.9317 23.1845C16.4035 23.4241 16.928 23.5408 17.4568 23.5239C20.9949 23.5239 23.3893 20.291 23.3893 15.9912C23.3893 12.7243 20.6133 9.66967 16.4384 9.66967C11.1922 9.66967 8.57024 13.4184 8.57024 16.55C8.57024 18.4629 9.28732 20.1382 10.8095 20.7475C10.8637 20.7753 10.9238 20.79 10.9847 20.7903C11.0457 20.7907 11.1059 20.7767 11.1605 20.7495C11.215 20.7223 11.2625 20.6827 11.2989 20.6338C11.3354 20.5849 11.3599 20.5282 11.3704 20.4681C11.421 20.291 11.5486 19.8082 11.5992 19.6058C11.6396 19.4986 11.644 19.3812 11.6119 19.2713C11.5797 19.1614 11.5127 19.0649 11.421 18.9964C10.9299 18.3836 10.6768 17.6141 10.7083 16.8294C10.7006 16.1221 10.8367 15.4205 11.1084 14.7674C11.3801 14.1142 11.7817 13.5231 12.2888 13.03C12.7959 12.5368 13.3979 12.1519 14.0583 11.8985C14.7187 11.6451 15.4237 11.5287 16.1304 11.5561C19.0846 11.5561 20.687 13.3689 20.687 15.7888C20.687 18.9458 19.288 21.6198 17.2006 21.6198C16.9349 21.6334 16.6698 21.5844 16.4265 21.4767C16.1833 21.369 15.9688 21.2056 15.8002 20.9998C15.6317 20.794 15.5138 20.5514 15.4562 20.2917C15.3985 20.032 15.4027 19.7624 15.4683 19.5046C15.5895 18.9919 15.7509 18.467 15.9072 17.959C16.1796 17.0737 16.4362 16.2396 16.4362 15.6106C16.4637 15.4018 16.4459 15.1894 16.384 14.9881C16.3221 14.7867 16.2176 14.601 16.0776 14.4436C15.9375 14.2862 15.7653 14.1608 15.5725 14.076C15.3797 13.9911 15.1708 13.9488 14.9602 13.9519C13.7878 13.9519 12.8453 15.1707 12.8453 16.8041C12.8367 17.4014 12.9583 17.9933 13.2016 18.5388C13.2016 18.5388 11.9797 23.6251 11.7762 24.548C11.5915 25.3751 11.5311 26.2252 11.597 27.0702C9.16277 26.0065 7.19559 24.098 6.05864 21.6969C4.92169 19.2958 4.69177 16.5644 5.41132 14.007C6.13088 11.4495 7.75132 9.23889 9.97342 7.78317Z" fill="white"/>
</g>
<defs>
<clipPath id="clip0_2586_1042">
<rect width="32" height="32" fill="white" transform="translate(0 0.984375)"/>
</clipPath>
</defs>
</svg>
