<svg width="32" height="33" viewBox="0 0 32 33" fill="none" xmlns="http://www.w3.org/2000/svg">
<g clip-path="url(#clip0_2586_1008)">
<path fill-rule="evenodd" clip-rule="evenodd" d="M0.750577 4.57788C0 6.0228 0 7.9211 0 11.7177V22.251C0 26.0476 0 27.9459 0.750577 29.3909C1.38308 30.6085 2.37588 31.6013 3.5935 32.2338C5.03843 32.9844 6.93673 32.9844 10.7333 32.9844H21.2667C25.0633 32.9844 26.9616 32.9844 28.4065 32.2338C29.6241 31.6013 30.6169 30.6085 31.2494 29.3909C32 27.9459 32 26.0476 32 22.251V11.7177C32 7.9211 32 6.0228 31.2494 4.57788C30.6169 3.36026 29.6241 2.36746 28.4065 1.73495C26.9616 0.984375 25.0633 0.984375 21.2667 0.984375H10.7333C6.93673 0.984375 5.03843 0.984375 3.5935 1.73495C2.37588 2.36746 1.38308 3.36026 0.750577 4.57788ZM17.049 25.0642C16.2773 25.2703 15.4583 25.3845 14.6472 25.3845C9.9619 25.3845 5.375 21.6467 5.375 16.2107C5.375 10.7248 9.96059 6.98438 14.6459 6.98438C19.41 6.98438 23.951 10.6959 23.951 16.2107C23.951 19.2778 22.5204 21.7701 20.4402 23.3817C21.1096 24.3884 21.8025 25.0577 22.7659 25.0577C23.8158 25.0577 24.241 24.2466 24.3119 23.6088H25.682C25.7608 24.4579 25.3369 27.9844 21.5086 27.9844C19.1921 27.9844 17.965 26.6405 17.0463 25.0656L17.049 25.0642ZM16.1754 23.3567C15.4484 21.9262 14.5953 20.4786 12.9298 20.4786C12.6122 20.4786 12.2933 20.5311 12.0019 20.6623L11.4376 19.5336C12.1253 18.9404 13.2396 18.4706 14.6714 18.4706C16.8986 18.4706 18.0417 19.5468 18.9499 20.9143C19.488 19.7463 19.7426 18.1661 19.7426 16.2093C19.7426 11.3218 18.2149 8.8125 14.6452 8.8125C11.1279 8.8125 9.60547 11.3218 9.60547 16.2093C9.60547 21.0705 11.1279 23.5536 14.6452 23.5536C15.2042 23.5536 15.7108 23.4932 16.1754 23.3567Z" fill="white"/>
</g>
<defs>
<clipPath id="clip0_2586_1008">
<rect width="32" height="32" fill="white" transform="translate(0 0.984375)"/>
</clipPath>
</defs>
</svg>
