<svg width="32" height="33" viewBox="0 0 32 33" fill="none" xmlns="http://www.w3.org/2000/svg">
<g clip-path="url(#clip0_2586_1026)">
<path fill-rule="evenodd" clip-rule="evenodd" d="M0.750577 4.57788C0 6.0228 0 7.9211 0 11.7177V22.251C0 26.0476 0 27.9459 0.750577 29.3909C1.38308 30.6085 2.37588 31.6013 3.5935 32.2338C5.03843 32.9844 6.93673 32.9844 10.7333 32.9844H21.2667C25.0633 32.9844 26.9616 32.9844 28.4065 32.2338C29.6241 31.6013 30.6169 30.6085 31.2494 29.3909C32 27.9459 32 26.0476 32 22.251V11.7177C32 7.9211 32 6.0228 31.2494 4.57788C30.6169 3.36026 29.6241 2.36746 28.4065 1.73495C26.9616 0.984375 25.0633 0.984375 21.2667 0.984375H10.7333C6.93673 0.984375 5.03843 0.984375 3.5935 1.73495C2.37588 2.36746 1.38308 3.36026 0.750577 4.57788ZM26.5646 15.8084C26.8316 16.1981 26.9827 16.6585 26.9997 17.1341C27.0068 17.5996 26.8849 18.0577 26.6481 18.4553C26.4114 18.853 26.0695 19.174 25.6619 19.3812C25.6805 19.6287 25.6805 19.8772 25.6619 20.1246C25.6619 23.9093 21.3513 26.9844 16.0333 26.9844C10.7152 26.9844 6.40462 23.9093 6.40462 20.1246C6.38602 19.8772 6.38602 19.6287 6.40462 19.3812C6.08696 19.2319 5.80482 19.0137 5.57778 18.7418C5.35073 18.4699 5.1842 18.1507 5.08973 17.8063C4.99525 17.462 4.97509 17.1008 5.03064 16.7477C5.08619 16.3946 5.21612 16.0581 5.41144 15.7615C5.60675 15.4649 5.86277 15.2153 6.16176 15.0299C6.46074 14.8446 6.79555 14.728 7.14296 14.6882C7.49038 14.6484 7.8421 14.6864 8.17375 14.7994C8.5054 14.9125 8.80904 15.098 9.06365 15.3431C10.9667 14.0227 13.2056 13.3004 15.5048 13.2649L16.7269 7.40204C16.7407 7.33417 16.7674 7.26976 16.8057 7.21254C16.8439 7.15532 16.8929 7.10644 16.9497 7.06872C17.0065 7.031 17.0701 7.0052 17.1368 6.99281C17.2034 6.98042 17.2718 6.98169 17.338 6.99654L21.3844 7.82444C21.582 7.47712 21.8941 7.21323 22.2648 7.08014C22.6354 6.94704 23.0403 6.95346 23.4068 7.09823C23.7732 7.24301 24.0772 7.51666 24.2642 7.87007C24.4512 8.22348 24.5089 8.6335 24.4271 9.02654C24.3452 9.41957 24.129 9.76989 23.8175 10.0146C23.5059 10.2593 23.1192 10.3824 22.7269 10.3617C22.3346 10.3411 21.9623 10.1781 21.6769 9.90193C21.3915 9.6258 21.2117 9.25465 21.1697 8.85509L17.6353 8.09477L16.5618 13.3663C18.833 13.4161 21.0415 14.1379 22.9203 15.4445C23.256 15.1149 23.6776 14.8918 24.1344 14.8018C24.5912 14.7119 25.0637 14.7591 25.4949 14.9377C25.9261 15.1163 26.2976 15.4187 26.5646 15.8084ZM10.9677 17.6289C10.658 17.9458 10.484 18.3756 10.484 18.8237C10.484 19.2718 10.658 19.7015 10.9677 20.0184C11.2775 20.3352 11.6975 20.5133 12.1356 20.5133C12.5736 20.5133 12.9937 20.3352 13.3034 20.0184C13.6131 19.7015 13.7871 19.2718 13.7871 18.8237C13.7871 18.3756 13.6131 17.9458 13.3034 17.6289C12.9937 17.3121 12.5736 17.1341 12.1356 17.1341C11.6975 17.1341 11.2775 17.3121 10.9677 17.6289ZM16.0002 24.771C17.4662 24.8331 18.9079 24.3734 20.0796 23.47V23.5376C20.128 23.4956 20.1674 23.4439 20.1954 23.3857C20.2234 23.3275 20.2394 23.264 20.2424 23.1992C20.2454 23.1344 20.2353 23.0696 20.2128 23.009C20.1903 22.9483 20.1559 22.893 20.1116 22.8466C20.0673 22.8001 20.0142 22.7635 19.9555 22.7389C19.8967 22.7144 19.8337 22.7025 19.7703 22.7039C19.7069 22.7053 19.6445 22.7201 19.5869 22.7472C19.5293 22.7744 19.4778 22.8134 19.4355 22.8618C18.4332 23.5974 17.2155 23.961 15.9837 23.8924C14.7535 23.9487 13.5414 23.5731 12.5485 22.828C12.4629 22.7561 12.3543 22.7194 12.2437 22.725C12.1331 22.7305 12.0285 22.778 11.9502 22.858C11.872 22.9381 11.8256 23.0451 11.8202 23.1582C11.8147 23.2714 11.8506 23.3825 11.9209 23.47C13.0926 24.3734 14.5343 24.8331 16.0002 24.771ZM18.8648 20.2961C19.1364 20.4817 19.4557 20.5808 19.7823 20.5808L19.7658 20.6484C19.9898 20.6509 20.2119 20.6067 20.4186 20.5187C20.6254 20.4306 20.8124 20.3004 20.9685 20.136C21.1245 19.9717 21.2462 19.7766 21.3262 19.5626C21.4063 19.3486 21.4429 19.1202 21.4339 18.8912C21.4339 18.5571 21.3371 18.2304 21.1556 17.9526C20.9741 17.6747 20.7162 17.4581 20.4144 17.3303C20.1126 17.2024 19.7805 17.1689 19.4601 17.2341C19.1398 17.2993 18.8455 17.4602 18.6145 17.6965C18.3835 17.9328 18.2262 18.2339 18.1625 18.5616C18.0988 18.8894 18.1315 19.2291 18.2565 19.5378C18.3815 19.8466 18.5932 20.1104 18.8648 20.2961Z" fill="white"/>
</g>
<defs>
<clipPath id="clip0_2586_1026">
<rect width="32" height="32" fill="white" transform="translate(0 0.984375)"/>
</clipPath>
</defs>
</svg>
