<svg width="32" height="33" viewBox="0 0 32 33" fill="none" xmlns="http://www.w3.org/2000/svg">
<g clip-path="url(#clip0_2586_1038)">
<path fill-rule="evenodd" clip-rule="evenodd" d="M0.750577 4.57788C0 6.0228 0 7.9211 0 11.7177V22.251C0 26.0476 0 27.9459 0.750577 29.3909C1.38308 30.6085 2.37588 31.6013 3.5935 32.2338C5.03843 32.9844 6.93673 32.9844 10.7333 32.9844H21.2667C25.0633 32.9844 26.9616 32.9844 28.4065 32.2338C29.6241 31.6013 30.6169 30.6085 31.2494 29.3909C32 27.9459 32 26.0476 32 22.251V11.7177C32 7.9211 32 6.0228 31.2494 4.57788C30.6169 3.36026 29.6241 2.36746 28.4065 1.73495C26.9616 0.984375 25.0633 0.984375 21.2667 0.984375H10.7333C6.93673 0.984375 5.03843 0.984375 3.5935 1.73495C2.37588 2.36746 1.38308 3.36026 0.750577 4.57788ZM25.757 17.3203C25.757 18.0187 25.6727 18.7172 25.5367 19.3734C26.2211 20.2594 26.6289 21.3656 26.6242 22.5656C26.6242 25.4625 24.2711 27.8156 21.3742 27.8156C20.1742 27.8156 19.068 27.4078 18.1773 26.7234C17.5164 26.8641 16.8227 26.9437 16.1242 26.9437C10.8086 26.9437 6.50078 22.6406 6.50078 17.3203C6.50078 16.6219 6.58516 15.9234 6.72109 15.2672C6.03672 14.3812 5.62891 13.275 5.62891 12.0703C5.62891 9.17344 7.98203 6.82031 10.8789 6.82031C12.0836 6.82031 13.1898 7.22813 14.0805 7.91719C14.7414 7.77656 15.4352 7.69688 16.1336 7.69688C21.4492 7.69688 25.757 12 25.757 17.3203ZM10.7664 20.6156C10.7664 22.2937 13.3398 23.6625 16.4148 23.6625C18.9883 23.6625 21.6648 22.3781 21.6648 19.6078C21.6648 17.2266 19.3539 16.4062 17.4133 15.9703C17.1444 15.908 16.8937 15.8517 16.6607 15.7994C14.9314 15.4113 14.1742 15.2413 14.1742 14.4234C14.1742 13.6969 14.9383 13.3687 16.143 13.3687C17.345 13.3687 17.8872 13.861 18.3645 14.2943C18.7397 14.6349 19.0748 14.9391 19.6586 14.9391C20.5445 14.9391 21.0789 14.2406 21.0789 13.4484C21.0789 11.8781 18.468 10.8516 15.8852 10.8516C13.518 10.8516 10.7711 11.8781 10.7711 14.6531C10.7711 17.4339 12.917 17.9407 15.5106 18.5531C15.7675 18.6138 16.0289 18.6756 16.293 18.7406C16.3551 18.7559 16.4161 18.7708 16.4758 18.7854C17.5863 19.0564 18.2617 19.2213 18.2617 20.0531C18.2617 20.7516 17.4836 21.2859 16.2789 21.2859C14.8408 21.2859 14.1759 20.6066 13.6015 20.0198C13.165 19.5738 12.7808 19.1813 12.1492 19.1813C11.1883 19.1813 10.7664 19.8656 10.7664 20.6156Z" fill="white"/>
</g>
<defs>
<clipPath id="clip0_2586_1038">
<rect width="32" height="32" fill="white" transform="translate(0 0.984375)"/>
</clipPath>
</defs>
</svg>
