<svg width="32" height="33" viewBox="0 0 32 33" fill="none" xmlns="http://www.w3.org/2000/svg">
<g clip-path="url(#clip0_2586_1034)">
<path fill-rule="evenodd" clip-rule="evenodd" d="M0.750577 4.57788C0 6.0228 0 7.9211 0 11.7177V22.251C0 26.0476 0 27.9459 0.750577 29.3909C1.38308 30.6085 2.37588 31.6013 3.5935 32.2338C5.03843 32.9844 6.93673 32.9844 10.7333 32.9844H21.2667C25.0633 32.9844 26.9616 32.9844 28.4065 32.2338C29.6241 31.6013 30.6169 30.6085 31.2494 29.3909C32 27.9459 32 26.0476 32 22.251V11.7177C32 7.9211 32 6.0228 31.2494 4.57788C30.6169 3.36026 29.6241 2.36746 28.4065 1.73495C26.9616 0.984375 25.0633 0.984375 21.2667 0.984375H10.7333C6.93673 0.984375 5.03843 0.984375 3.5935 1.73495C2.37588 2.36746 1.38308 3.36026 0.750577 4.57788ZM13.5471 18.0439L5.05353 6.6875H11.5997L17.1679 14.1326L24.0592 6.6875H25.983L18.0273 15.2821L26.9989 27.2773H20.4528L14.4069 19.1931L6.92375 27.2773H5L13.5471 18.0439ZM10.8898 8.10438H7.88249L21.1623 25.8605H24.1696L10.8898 8.10438Z" fill="white"/>
</g>
<defs>
<clipPath id="clip0_2586_1034">
<rect width="32" height="32" fill="white" transform="translate(0 0.984375)"/>
</clipPath>
</defs>
</svg>
