<svg width="32" height="33" viewBox="0 0 32 33" fill="none" xmlns="http://www.w3.org/2000/svg">
<path fill-rule="evenodd" clip-rule="evenodd" d="M0.750577 4.57788C0 6.0228 0 7.9211 0 11.7177V22.251C0 26.0476 0 27.9459 0.750577 29.3909C1.38308 30.6085 2.37588 31.6013 3.5935 32.2338C5.03843 32.9844 6.93673 32.9844 10.7333 32.9844H21.2667C25.0633 32.9844 26.9616 32.9844 28.4065 32.2338C29.6241 31.6013 30.6169 30.6085 31.2494 29.3909C32 27.9459 32 26.0476 32 22.251V11.7177C32 7.9211 32 6.0228 31.2494 4.57788C30.6169 3.36026 29.6241 2.36746 28.4065 1.73495C26.9616 0.984375 25.0633 0.984375 21.2667 0.984375H10.7333C6.93673 0.984375 5.03843 0.984375 3.5935 1.73495C2.37588 2.36746 1.38308 3.36026 0.750577 4.57788ZM26.5469 11.3314C26.2932 10.4138 25.5502 9.69026 24.6078 9.4432C22.8862 8.98438 16 8.98438 16 8.98438C16 8.98438 9.11366 8.98438 7.39208 9.42555C6.46787 9.67261 5.70675 10.4138 5.45305 11.3314C5 13.0079 5 16.4844 5 16.4844C5 16.4844 5 19.9785 5.45305 21.6373C5.70675 22.555 6.44975 23.2785 7.39208 23.5256C9.13178 23.9844 16 23.9844 16 23.9844C16 23.9844 22.8862 23.9844 24.6078 23.5432C25.5502 23.2961 26.2932 22.5726 26.5469 21.655C26.9999 19.9785 26.9999 16.502 26.9999 16.502C26.9999 16.502 27.018 13.0079 26.5469 11.3314ZM13.8072 19.5736L19.5337 16.3618L13.8072 13.1501V19.5736Z" fill="white"/>
</svg>
