<svg width="528" height="640" viewBox="0 0 528 640" fill="none" xmlns="http://www.w3.org/2000/svg">
<g clip-path="url(#clip0_739_47)">
<rect width="528" height="640" fill="#E4F2F2"/>
<mask id="mask0_739_47" style="mask-type:alpha" maskUnits="userSpaceOnUse" x="0" y="0" width="528" height="641">
<rect y="0.0107422" width="528" height="640" fill="black"/>
</mask>
<g mask="url(#mask0_739_47)">
<path d="M263.74 208L360.51 263.87V375.61L263.74 431.48L166.97 375.61V263.87L263.74 208Z" fill="black"/>
<path d="M570.93 670.43C570.93 670.43 598.203 596.081 561.775 557.413L519.276 512.3L449.505 541.536L416.162 609.44L458.66 654.553C495.088 693.221 570.93 670.43 570.93 670.43Z" stroke="black" stroke-width="2" stroke-linecap="round" stroke-linejoin="round"/>
<path d="M515.368 562.973L516.045 628.857L496.289 629.05" stroke="black" stroke-width="2" stroke-linecap="round" stroke-linejoin="round"/>
</g>
<path d="M143.085 280.752L106.181 215.294L179.858 230.07L148.734 245.598L148.268 245.831L148.191 246.346L143.085 280.752Z" stroke="black" stroke-width="2"/>
<path d="M505 7.81126L508.927 18.1291L509.091 18.5588L509.523 18.7144L520.046 22.5L509.523 26.2856L509.091 26.4412L508.927 26.8709L505 37.1887L501.073 26.8709L500.909 26.4412L500.477 26.2856L489.954 22.5L500.477 18.7144L500.909 18.5588L501.073 18.1291L505 7.81126Z" stroke="black" stroke-width="2"/>
<path d="M189.42 326V308.545H195.309C196.445 308.545 197.391 308.744 198.147 309.142C198.908 309.54 199.479 310.082 199.86 310.77C200.241 311.457 200.431 312.239 200.431 313.114C200.431 313.841 200.309 314.463 200.065 314.98C199.82 315.497 199.488 315.915 199.067 316.233C198.647 316.551 198.178 316.781 197.661 316.923V317.06C198.224 317.099 198.769 317.298 199.298 317.656C199.826 318.009 200.261 318.503 200.602 319.139C200.942 319.776 201.113 320.537 201.113 321.423C201.113 322.304 200.917 323.091 200.525 323.784C200.133 324.472 199.531 325.014 198.718 325.412C197.911 325.804 196.883 326 195.633 326H189.42ZM191.013 324.568H195.633C196.979 324.568 197.974 324.27 198.616 323.673C199.263 323.077 199.587 322.327 199.587 321.423C199.587 320.759 199.425 320.156 199.102 319.616C198.783 319.071 198.332 318.639 197.746 318.321C197.167 318.003 196.485 317.844 195.701 317.844H191.013V324.568ZM191.013 316.429H195.454C196.141 316.429 196.744 316.287 197.261 316.003C197.778 315.719 198.181 315.327 198.471 314.827C198.761 314.327 198.906 313.756 198.906 313.114C198.906 312.187 198.604 311.435 198.002 310.855C197.4 310.27 196.502 309.977 195.309 309.977H191.013V316.429ZM204.959 326V308.545H206.553V324.568H214.871V326H204.959ZM232.089 317.273C232.089 319.091 231.765 320.673 231.117 322.02C230.469 323.361 229.577 324.401 228.441 325.139C227.31 325.872 226.009 326.239 224.538 326.239C223.066 326.239 221.762 325.872 220.626 325.139C219.495 324.401 218.606 323.361 217.958 322.02C217.316 320.673 216.995 319.091 216.995 317.273C216.995 315.455 217.316 313.875 217.958 312.534C218.606 311.187 219.498 310.148 220.634 309.415C221.771 308.676 223.072 308.307 224.538 308.307C226.009 308.307 227.31 308.676 228.441 309.415C229.577 310.148 230.469 311.187 231.117 312.534C231.765 313.875 232.089 315.455 232.089 317.273ZM230.538 317.273C230.538 315.71 230.276 314.372 229.754 313.259C229.231 312.139 228.518 311.284 227.614 310.693C226.711 310.102 225.685 309.807 224.538 309.807C223.396 309.807 222.373 310.102 221.469 310.693C220.566 311.284 219.85 312.136 219.322 313.25C218.799 314.364 218.538 315.705 218.538 317.273C218.538 318.835 218.799 320.173 219.322 321.287C219.844 322.401 220.558 323.256 221.461 323.852C222.364 324.443 223.39 324.739 224.538 324.739C225.685 324.739 226.711 324.443 227.614 323.852C228.523 323.261 229.239 322.409 229.762 321.295C230.285 320.176 230.543 318.835 230.538 317.273ZM249.614 314H248.011C247.892 313.403 247.676 312.852 247.364 312.347C247.057 311.835 246.67 311.389 246.205 311.009C245.739 310.628 245.21 310.332 244.619 310.122C244.028 309.912 243.389 309.807 242.702 309.807C241.599 309.807 240.594 310.094 239.685 310.668C238.781 311.241 238.057 312.085 237.511 313.199C236.972 314.307 236.702 315.665 236.702 317.273C236.702 318.892 236.972 320.256 237.511 321.364C238.057 322.472 238.781 323.312 239.685 323.886C240.594 324.455 241.599 324.739 242.702 324.739C243.389 324.739 244.028 324.634 244.619 324.423C245.21 324.213 245.739 323.92 246.205 323.545C246.67 323.165 247.057 322.719 247.364 322.207C247.676 321.696 247.892 321.142 248.011 320.545H249.614C249.472 321.347 249.205 322.094 248.812 322.787C248.426 323.474 247.932 324.077 247.33 324.594C246.733 325.111 246.045 325.514 245.267 325.804C244.489 326.094 243.634 326.239 242.702 326.239C241.236 326.239 239.935 325.872 238.798 325.139C237.662 324.401 236.77 323.361 236.122 322.02C235.48 320.679 235.159 319.097 235.159 317.273C235.159 315.449 235.48 313.866 236.122 312.526C236.77 311.185 237.662 310.148 238.798 309.415C239.935 308.676 241.236 308.307 242.702 308.307C243.634 308.307 244.489 308.452 245.267 308.741C246.045 309.026 246.733 309.429 247.33 309.952C247.932 310.469 248.426 311.071 248.812 311.759C249.205 312.446 249.472 313.193 249.614 314ZM253.357 326V308.545H254.951V317.946H255.104L263.627 308.545H265.724L258.266 316.616L265.69 326H263.746L257.278 317.724L254.951 320.332V326H253.357ZM281.536 314H279.933C279.814 313.403 279.598 312.852 279.286 312.347C278.979 311.835 278.592 311.389 278.126 311.009C277.661 310.628 277.132 310.332 276.541 310.122C275.95 309.912 275.311 309.807 274.624 309.807C273.521 309.807 272.516 310.094 271.607 310.668C270.703 311.241 269.979 312.085 269.433 313.199C268.893 314.307 268.624 315.665 268.624 317.273C268.624 318.892 268.893 320.256 269.433 321.364C269.979 322.472 270.703 323.312 271.607 323.886C272.516 324.455 273.521 324.739 274.624 324.739C275.311 324.739 275.95 324.634 276.541 324.423C277.132 324.213 277.661 323.92 278.126 323.545C278.592 323.165 278.979 322.719 279.286 322.207C279.598 321.696 279.814 321.142 279.933 320.545H281.536C281.393 321.347 281.126 322.094 280.734 322.787C280.348 323.474 279.854 324.077 279.251 324.594C278.655 325.111 277.967 325.514 277.189 325.804C276.411 326.094 275.555 326.239 274.624 326.239C273.158 326.239 271.857 325.872 270.72 325.139C269.584 324.401 268.692 323.361 268.044 322.02C267.402 320.679 267.081 319.097 267.081 317.273C267.081 315.449 267.402 313.866 268.044 312.526C268.692 311.185 269.584 310.148 270.72 309.415C271.857 308.676 273.158 308.307 274.624 308.307C275.555 308.307 276.411 308.452 277.189 308.741C277.967 309.026 278.655 309.429 279.251 309.952C279.854 310.469 280.348 311.071 280.734 311.759C281.126 312.446 281.393 313.193 281.536 314ZM285.279 326V308.545H286.873V316.548H296.776V308.545H298.37V326H296.776V317.98H286.873V326H285.279ZM303.023 326H301.353L307.702 308.545H309.407L315.756 326H314.086L308.614 310.616H308.495L303.023 326ZM304.225 319.31H312.884V320.741H304.225V319.31ZM320.342 308.545V326H318.748V308.545H320.342ZM338.576 308.545V326H337.025L326.712 311.384H326.576V326H324.982V308.545H326.525L336.871 323.179H337.008V308.545H338.576Z" fill="white"/>
<path d="M-135.856 656.701L139 657L137.274 596.152L-111.594 596.037C-120.137 596.037 -124.408 596.037 -127.671 597.707C-130.541 599.175 -132.875 601.518 -134.337 604.399C-136 607.676 -136 611.964 -136 620.541L-135.857 656.702M-105.492 473.517L-105.492 596.037M-36.8499 473.517L-36.8499 596.037M39.4194 473.517V596.037M108.062 473.517V596.037M-4.00968 382.808L-116.888 407.992C-123.708 409.514 -127.117 410.275 -129.663 412.116C-131.908 413.74 -133.67 415.946 -134.762 418.498C-136 421.392 -136 424.899 -136 431.913L-136 449.013C-136 457.59 -136 461.879 -134.337 465.155C-132.875 468.036 -130.541 470.379 -127.671 471.848C-124.408 473.517 -120.137 473.517 -111.594 473.517L137.054 473.4L135.675 414.381L6.5792 382.808C4.60343 382.367 3.61555 382.146 2.61728 382.059C1.73064 381.98 0.838885 381.98 -0.0477595 382.059C-1.04603 382.146 -2.03391 382.367 -4.00968 382.808Z" stroke="black" stroke-width="2" stroke-linecap="round" stroke-linejoin="round"/>
<path d="M103 354H135.628C135.869 354 135.99 354 136.087 354.044C136.173 354.083 136.247 354.145 136.299 354.223C136.358 354.313 136.378 354.432 136.417 354.669L150.235 438.207M150.235 438.207L168.229 567.242C168.365 568.22 168.433 568.708 168.668 569.076C168.875 569.4 169.171 569.658 169.521 569.818C169.917 570 170.411 570 171.398 570H358.288C359.272 570 359.763 570 360.159 569.819C360.508 569.66 360.803 569.404 361.011 569.081C361.246 568.715 361.316 568.228 361.456 567.255L379.869 439.121C379.914 438.806 379.937 438.648 379.889 438.525C379.847 438.418 379.769 438.328 379.669 438.272C379.554 438.207 379.395 438.207 379.077 438.207H150.235Z" stroke="black" stroke-width="2" stroke-linecap="round" stroke-linejoin="round"/>
<path d="M386.088 503.061C376.656 519.497 381.821 540.174 397.625 549.244C413.43 558.314 433.888 552.342 443.321 535.905L498.5 439.755M498.5 439.755C480.069 429.178 446.145 424.926 446.145 424.926C446.145 424.926 436.805 404.35 418.375 393.772C399.944 383.195 377.466 385.512 377.466 385.512C413.745 322.295 494.403 300.457 557.62 336.737C620.837 373.016 642.675 453.674 606.396 516.891C606.396 516.891 597.056 496.315 578.625 485.737C560.194 475.16 537.717 477.477 537.717 477.477C537.717 477.477 516.931 450.332 498.5 439.755Z" stroke="black" stroke-width="2" stroke-linecap="round" stroke-linejoin="round"/>
<path d="M189.625 -4.08253L83.4996 54.4996M189.625 -4.08253L82.5987 -63.5668L-22.625 -4.9838M189.625 -4.08253V112.145C189.625 112.487 189.625 112.657 189.575 112.81C189.531 112.944 189.458 113.068 189.362 113.173C189.254 113.291 189.105 113.374 188.807 113.541L83.5 172.567M83.4996 54.4996L-22.625 -4.9838M83.4996 54.4996L83.5 172.567M-22.625 -4.9838V113.083L83.5 172.567" stroke="black" stroke-width="2" stroke-linecap="round" stroke-linejoin="round"/>
<path d="M136.563 25.0208L30.4375 -33.9375" stroke="black" stroke-width="2" stroke-linecap="round" stroke-linejoin="round"/>
<circle cx="212.5" cy="196.5" r="23.5" stroke="black" stroke-width="2"/>
<circle cx="84" cy="355" r="18" stroke="black" stroke-width="2"/>
<circle cx="198" cy="611" r="28" stroke="black" stroke-width="2"/>
<circle cx="340" cy="611" r="28" stroke="black" stroke-width="2"/>
<circle cx="443.5" cy="239.5" r="72.4999" stroke="black" stroke-width="2"/>
<rect x="443.961" y="214.375" width="34.8812" height="34.8812" transform="rotate(45 443.961 214.375)" stroke="black" stroke-width="2"/>
<g clip-path="url(#clip1_739_47)">
<path d="M70.7139 182.972L-18.2662 189.033L-75.2026 274.376C-77.4913 277.807 -78.3101 282.015 -77.479 286.075C-76.6479 290.135 -74.2349 293.714 -70.7708 296.025L33.2288 364.415L99.2866 267.458L70.7139 182.972Z" stroke="black" stroke-width="2" stroke-linecap="round" stroke-linejoin="round"/>
<path d="M-44.2325 312.831L-0.144531 246.746L39.0397 272.888L-5.0482 338.972" stroke="black" stroke-width="2" stroke-linecap="round" stroke-linejoin="round"/>
</g>
<rect x="371.414" y="42.0244" width="80.9135" height="194.716" rx="40.4567" transform="rotate(-46.2853 371.414 42.0244)" stroke="black" stroke-width="2"/>
<path d="M442 109L497.051 50.9506" stroke="black" stroke-width="2"/>
<rect x="234.905" y="152.334" width="143.858" height="126.842" transform="rotate(-53.064 234.905 152.334)" stroke="black" stroke-width="2"/>
<path d="M303.865 60.966L288.32 49.2794C269.54 35.1605 242.87 38.9391 228.751 57.7191V57.7191C214.633 76.4991 218.411 103.169 237.191 117.288L252.736 128.974" stroke="black" stroke-width="2"/>
<path d="M357.372 144.124L357.275 144.723L357.762 145.086L384.143 164.762L373.529 178.993L346.845 159.091L346.379 158.743L345.847 158.976C339.554 161.726 332.004 161.096 326.127 156.677C317.441 150.147 315.694 137.813 322.224 129.127C328.754 120.441 341.088 118.694 349.774 125.224C355.823 129.771 358.508 137.135 357.372 144.124Z" stroke="black" stroke-width="2"/>
<circle cx="269.5" cy="-38.5" r="60.5" stroke="black" stroke-width="2"/>
</g>
<defs>
<clipPath id="clip0_739_47">
<rect width="528" height="640" fill="white"/>
</clipPath>
<clipPath id="clip1_739_47">
<rect width="188.416" height="190.659" fill="white" transform="translate(0.811035 118) rotate(33.709)"/>
</clipPath>
</defs>
</svg>
